<svg width="462" height="225" viewBox="0 0 462 225" fill="none" xmlns="http://www.w3.org/2000/svg">
<rect width="462" height="225" fill="white"/>
<path d="M38.4382 106V97.2727H41.8814C42.5405 97.2727 43.103 97.3906 43.5689 97.6264C44.0376 97.8594 44.3942 98.1903 44.6385 98.6193C44.8857 99.0455 45.0092 99.5469 45.0092 100.124C45.0092 100.703 44.8842 101.202 44.6342 101.619C44.3842 102.034 44.022 102.352 43.5476 102.574C43.076 102.795 42.505 102.906 41.8345 102.906H39.5291V101.423H41.5362C41.8885 101.423 42.1811 101.375 42.4141 101.278C42.647 101.182 42.8203 101.037 42.9339 100.844C43.0504 100.651 43.1087 100.411 43.1087 100.124C43.1087 99.8338 43.0504 99.5895 42.9339 99.3906C42.8203 99.1918 42.6456 99.0412 42.4098 98.9389C42.1768 98.8338 41.8828 98.7812 41.5277 98.7812H40.2834V106H38.4382ZM43.1513 102.028L45.3203 106H43.2834L41.1612 102.028H43.1513ZM49.1566 106.128C48.4833 106.128 47.9038 105.991 47.418 105.719C46.935 105.443 46.5629 105.054 46.3015 104.551C46.0401 104.045 45.9094 103.447 45.9094 102.757C45.9094 102.084 46.0401 101.493 46.3015 100.984C46.5629 100.476 46.9308 100.08 47.4052 99.7955C47.8825 99.5114 48.4421 99.3693 49.0842 99.3693C49.516 99.3693 49.918 99.4389 50.2901 99.5781C50.6651 99.7145 50.9918 99.9205 51.2702 100.196C51.5515 100.472 51.7702 100.818 51.9265 101.236C52.0827 101.651 52.1609 102.136 52.1609 102.693V103.192H46.6339V102.067H50.4521C50.4521 101.805 50.3952 101.574 50.2816 101.372C50.168 101.17 50.0103 101.013 49.8086 100.899C49.6097 100.783 49.3782 100.724 49.114 100.724C48.8384 100.724 48.5941 100.788 48.381 100.916C48.1708 101.041 48.006 101.21 47.8867 101.423C47.7674 101.634 47.7063 101.868 47.7035 102.126V103.196C47.7035 103.52 47.7631 103.8 47.8825 104.036C48.0046 104.271 48.1765 104.453 48.3981 104.581C48.6197 104.709 48.8825 104.773 49.1864 104.773C49.3881 104.773 49.5728 104.744 49.7404 104.688C49.908 104.631 50.0515 104.545 50.1708 104.432C50.2901 104.318 50.381 104.179 50.4435 104.014L52.1225 104.125C52.0373 104.528 51.8626 104.881 51.5984 105.182C51.337 105.48 50.9989 105.713 50.5842 105.881C50.1722 106.045 49.6964 106.128 49.1566 106.128ZM57.6708 108.455V104.952H57.6154C57.5302 105.134 57.4094 105.314 57.2532 105.493C57.0998 105.669 56.8995 105.815 56.6523 105.932C56.408 106.048 56.1097 106.107 55.7575 106.107C55.2603 106.107 54.81 105.979 54.4066 105.723C54.006 105.464 53.6879 105.085 53.4521 104.585C53.2191 104.082 53.1026 103.466 53.1026 102.736C53.1026 101.986 53.2234 101.362 53.4648 100.865C53.7063 100.365 54.0273 99.9915 54.4279 99.7443C54.8313 99.4943 55.2731 99.3693 55.7532 99.3693C56.1197 99.3693 56.4251 99.4318 56.6694 99.5568C56.9165 99.679 57.1154 99.8324 57.266 100.017C57.4194 100.199 57.5359 100.378 57.6154 100.554H57.6921V99.4545H59.4819V108.455H57.6708ZM56.3327 104.662C56.6254 104.662 56.8725 104.582 57.0742 104.423C57.2788 104.261 57.435 104.036 57.543 103.746C57.6538 103.456 57.7092 103.116 57.7092 102.727C57.7092 102.338 57.6552 102 57.5472 101.713C57.4393 101.426 57.283 101.205 57.0785 101.048C56.8739 100.892 56.6254 100.814 56.3327 100.814C56.0344 100.814 55.783 100.895 55.5785 101.057C55.3739 101.219 55.2191 101.443 55.114 101.73C55.0089 102.017 54.9563 102.349 54.9563 102.727C54.9563 103.108 55.0089 103.445 55.114 103.737C55.2219 104.027 55.3768 104.254 55.5785 104.419C55.783 104.581 56.0344 104.662 56.3327 104.662ZM65.1367 103.213V99.4545H66.9521V106H65.2092V104.811H65.141C64.9933 105.195 64.7475 105.503 64.4038 105.736C64.0629 105.969 63.6467 106.085 63.1552 106.085C62.7177 106.085 62.3327 105.986 62.0004 105.787C61.668 105.588 61.408 105.305 61.2205 104.939C61.0359 104.572 60.9421 104.134 60.9393 103.622V99.4545H62.7546V103.298C62.7575 103.685 62.8612 103.99 63.0657 104.214C63.2702 104.439 63.5444 104.551 63.8881 104.551C64.1069 104.551 64.3114 104.501 64.5018 104.402C64.6921 104.3 64.8455 104.149 64.962 103.95C65.0813 103.751 65.1396 103.506 65.1367 103.213ZM68.4041 106V99.4545H70.2195V106H68.4041ZM69.3161 98.6108C69.0462 98.6108 68.8146 98.5213 68.6214 98.3423C68.4311 98.1605 68.3359 97.9432 68.3359 97.6903C68.3359 97.4403 68.4311 97.2259 68.6214 97.0469C68.8146 96.8651 69.0462 96.7741 69.3161 96.7741C69.5859 96.7741 69.8161 96.8651 70.0064 97.0469C70.1996 97.2259 70.2962 97.4403 70.2962 97.6903C70.2962 97.9432 70.1996 98.1605 70.0064 98.3423C69.8161 98.5213 69.5859 98.6108 69.3161 98.6108ZM77.1197 101.321L75.4577 101.423C75.4293 101.281 75.3683 101.153 75.2745 101.04C75.1808 100.923 75.0572 100.831 74.9038 100.763C74.7532 100.692 74.5728 100.656 74.3626 100.656C74.0813 100.656 73.8441 100.716 73.6509 100.835C73.4577 100.952 73.3612 101.108 73.3612 101.304C73.3612 101.46 73.4237 101.592 73.5487 101.7C73.6737 101.808 73.8881 101.895 74.1921 101.96L75.3768 102.199C76.0131 102.33 76.4876 102.54 76.8001 102.83C77.1126 103.119 77.2688 103.5 77.2688 103.972C77.2688 104.401 77.1424 104.777 76.8896 105.101C76.6396 105.425 76.2958 105.678 75.8583 105.859C75.4237 106.038 74.9222 106.128 74.354 106.128C73.4876 106.128 72.7972 105.947 72.283 105.587C71.7717 105.223 71.4719 104.729 71.3839 104.104L73.1694 104.01C73.2234 104.274 73.354 104.476 73.5614 104.615C73.7688 104.751 74.0344 104.82 74.3583 104.82C74.6765 104.82 74.9322 104.759 75.1254 104.636C75.3214 104.511 75.4208 104.351 75.4237 104.155C75.4208 103.99 75.3512 103.855 75.2148 103.75C75.0785 103.642 74.8683 103.56 74.5842 103.503L73.4506 103.277C72.8114 103.149 72.3356 102.928 72.0231 102.612C71.7134 102.297 71.5586 101.895 71.5586 101.406C71.5586 100.986 71.6722 100.624 71.8995 100.32C72.1296 100.016 72.4521 99.7812 72.8668 99.6165C73.2844 99.4517 73.7731 99.3693 74.3327 99.3693C75.1594 99.3693 75.81 99.544 76.2844 99.8935C76.7617 100.243 77.0401 100.719 77.1197 101.321ZM78.4119 106V99.4545H80.2273V106H78.4119ZM79.3239 98.6108C79.054 98.6108 78.8224 98.5213 78.6293 98.3423C78.4389 98.1605 78.3438 97.9432 78.3438 97.6903C78.3438 97.4403 78.4389 97.2259 78.6293 97.0469C78.8224 96.8651 79.054 96.7741 79.3239 96.7741C79.5938 96.7741 79.8239 96.8651 80.0142 97.0469C80.2074 97.2259 80.304 97.4403 80.304 97.6903C80.304 97.9432 80.2074 98.1605 80.0142 98.3423C79.8239 98.5213 79.5938 98.6108 79.3239 98.6108ZM84.6388 106.128C83.9684 106.128 83.3917 105.986 82.9087 105.702C82.4286 105.415 82.0593 105.017 81.8008 104.509C81.5451 104 81.4173 103.415 81.4173 102.753C81.4173 102.082 81.5465 101.494 81.805 100.989C82.0664 100.48 82.4371 100.084 82.9173 99.7997C83.3974 99.5128 83.9684 99.3693 84.6303 99.3693C85.2013 99.3693 85.7013 99.473 86.1303 99.6804C86.5593 99.8878 86.8988 100.179 87.1488 100.554C87.3988 100.929 87.5366 101.369 87.5621 101.875H85.8491C85.8008 101.548 85.6729 101.286 85.4656 101.087C85.261 100.885 84.9925 100.784 84.6602 100.784C84.3789 100.784 84.1332 100.861 83.9229 101.014C83.7156 101.165 83.5536 101.385 83.4371 101.675C83.3207 101.964 83.2624 102.315 83.2624 102.727C83.2624 103.145 83.3192 103.5 83.4329 103.793C83.5494 104.085 83.7127 104.308 83.9229 104.462C84.1332 104.615 84.3789 104.692 84.6602 104.692C84.8675 104.692 85.0536 104.649 85.2184 104.564C85.386 104.479 85.5238 104.355 85.6317 104.193C85.7425 104.028 85.815 103.831 85.8491 103.601H87.5621C87.5337 104.101 87.3974 104.541 87.1531 104.922C86.9116 105.3 86.5778 105.595 86.1516 105.808C85.7255 106.021 85.2212 106.128 84.6388 106.128ZM84.2127 105.966H85.0479L84.9798 106.337C85.2724 106.382 85.511 106.491 85.6957 106.665C85.8832 106.838 85.9783 107.074 85.9812 107.372C85.984 107.795 85.788 108.132 85.3931 108.382C84.9982 108.635 84.4442 108.761 83.7312 108.761L83.7141 107.952C84.0721 107.952 84.3519 107.908 84.5536 107.82C84.7582 107.734 84.8647 107.601 84.8732 107.419C84.8789 107.246 84.8121 107.114 84.6729 107.023C84.5337 106.932 84.3164 106.868 84.021 106.831L84.2127 105.966ZM90.5909 106.124C90.1733 106.124 89.8011 106.051 89.4744 105.906C89.1477 105.759 88.8892 105.541 88.6989 105.254C88.5114 104.964 88.4176 104.604 88.4176 104.172C88.4176 103.808 88.4844 103.503 88.6179 103.256C88.7514 103.009 88.9332 102.81 89.1634 102.659C89.3935 102.509 89.6548 102.395 89.9474 102.318C90.2429 102.241 90.5526 102.188 90.8764 102.156C91.2571 102.116 91.5639 102.08 91.7969 102.045C92.0298 102.009 92.1989 101.955 92.304 101.884C92.4091 101.812 92.4616 101.707 92.4616 101.568V101.543C92.4616 101.273 92.3764 101.064 92.206 100.916C92.0384 100.768 91.7997 100.695 91.4901 100.695C91.1634 100.695 90.9034 100.767 90.7102 100.912C90.517 101.054 90.3892 101.233 90.3267 101.449L88.6477 101.312C88.733 100.915 88.9006 100.571 89.1506 100.281C89.4006 99.9886 89.723 99.7642 90.1179 99.608C90.5156 99.4489 90.9759 99.3693 91.4986 99.3693C91.8622 99.3693 92.2102 99.4119 92.5426 99.4972C92.8778 99.5824 93.1747 99.7145 93.4332 99.8935C93.6946 100.072 93.9006 100.303 94.0511 100.584C94.2017 100.862 94.277 101.196 94.277 101.585V106H92.5554V105.092H92.5043C92.3991 105.297 92.2585 105.477 92.0824 105.634C91.9062 105.787 91.6946 105.908 91.4474 105.996C91.2003 106.081 90.9148 106.124 90.5909 106.124ZM91.1108 104.871C91.3778 104.871 91.6136 104.818 91.8182 104.713C92.0227 104.605 92.1832 104.46 92.2997 104.278C92.4162 104.097 92.4744 103.891 92.4744 103.661V102.966C92.4176 103.003 92.3395 103.037 92.2401 103.068C92.1435 103.097 92.0341 103.124 91.9119 103.149C91.7898 103.172 91.6676 103.193 91.5455 103.213C91.4233 103.23 91.3125 103.246 91.2131 103.26C91 103.291 90.8139 103.341 90.6548 103.409C90.4957 103.477 90.3722 103.57 90.2841 103.686C90.196 103.8 90.152 103.942 90.152 104.112C90.152 104.359 90.2415 104.548 90.4205 104.679C90.6023 104.807 90.8324 104.871 91.1108 104.871ZM90.348 98.6491L89.3381 98.6364C89.3381 98.0938 89.4716 97.6776 89.7386 97.3878C90.0085 97.098 90.3366 96.9517 90.723 96.9489C90.9219 96.9489 91.0923 96.9815 91.2344 97.0469C91.3793 97.1094 91.5085 97.1832 91.6222 97.2685C91.7386 97.3537 91.8494 97.429 91.9545 97.4943C92.0597 97.5568 92.1733 97.5881 92.2955 97.5881C92.4602 97.5852 92.5852 97.5241 92.6705 97.4048C92.7585 97.2827 92.8026 97.1236 92.8026 96.9276L93.7955 96.9574C93.7898 97.4943 93.6534 97.9091 93.3864 98.2017C93.1193 98.4915 92.794 98.6378 92.4105 98.6406C92.1974 98.6406 92.0185 98.6094 91.8736 98.5469C91.7315 98.4815 91.6065 98.4077 91.4986 98.3253C91.3906 98.2401 91.2855 98.1648 91.1832 98.0994C91.081 98.0341 90.9659 98.0014 90.8381 98.0014C90.6903 98.0014 90.571 98.0597 90.4801 98.1761C90.392 98.2926 90.348 98.4503 90.348 98.6491ZM98.6428 106.128C97.9808 106.128 97.4084 105.987 96.9254 105.706C96.4453 105.422 96.0746 105.027 95.8132 104.521C95.5518 104.013 95.4212 103.423 95.4212 102.753C95.4212 102.077 95.5518 101.486 95.8132 100.98C96.0746 100.472 96.4453 100.077 96.9254 99.7955C97.4084 99.5114 97.9808 99.3693 98.6428 99.3693C99.3047 99.3693 99.8757 99.5114 100.356 99.7955C100.839 100.077 101.211 100.472 101.472 100.98C101.734 101.486 101.864 102.077 101.864 102.753C101.864 103.423 101.734 104.013 101.472 104.521C101.211 105.027 100.839 105.422 100.356 105.706C99.8757 105.987 99.3047 106.128 98.6428 106.128ZM98.6513 104.722C98.9524 104.722 99.2038 104.636 99.4055 104.466C99.6072 104.293 99.7592 104.057 99.8615 103.759C99.9666 103.46 100.019 103.121 100.019 102.74C100.019 102.359 99.9666 102.02 99.8615 101.722C99.7592 101.423 99.6072 101.187 99.4055 101.014C99.2038 100.841 98.9524 100.754 98.6513 100.754C98.3473 100.754 98.0916 100.841 97.8842 101.014C97.6797 101.187 97.5249 101.423 97.4197 101.722C97.3175 102.02 97.2663 102.359 97.2663 102.74C97.2663 103.121 97.3175 103.46 97.4197 103.759C97.5249 104.057 97.6797 104.293 97.8842 104.466C98.0916 104.636 98.3473 104.722 98.6513 104.722Z" fill="#040404"/>
<rect x="134.584" y="87.3242" width="100.736" height="50.5747" fill="#D60000" stroke="black"/>
<path d="M162.856 109.719C162.811 109.261 162.616 108.905 162.271 108.651C161.926 108.397 161.458 108.27 160.868 108.27C160.466 108.27 160.127 108.327 159.851 108.441C159.574 108.55 159.362 108.704 159.214 108.901C159.07 109.098 158.998 109.321 158.998 109.571C158.991 109.78 159.034 109.961 159.129 110.117C159.227 110.272 159.362 110.407 159.532 110.52C159.703 110.63 159.9 110.727 160.123 110.81C160.347 110.889 160.585 110.958 160.839 111.014L161.885 111.264C162.392 111.378 162.858 111.53 163.282 111.719C163.707 111.908 164.074 112.141 164.385 112.418C164.695 112.694 164.936 113.02 165.106 113.395C165.28 113.77 165.369 114.2 165.373 114.685C165.369 115.397 165.188 116.014 164.828 116.537C164.472 117.056 163.957 117.46 163.282 117.747C162.612 118.032 161.803 118.174 160.856 118.174C159.917 118.174 159.099 118.03 158.402 117.742C157.708 117.454 157.167 117.028 156.777 116.463C156.39 115.895 156.188 115.193 156.169 114.355H158.549C158.576 114.746 158.688 115.071 158.885 115.333C159.085 115.59 159.352 115.785 159.686 115.918C160.023 116.047 160.404 116.111 160.828 116.111C161.244 116.111 161.606 116.05 161.913 115.929C162.224 115.808 162.464 115.639 162.635 115.424C162.805 115.208 162.89 114.96 162.89 114.679C162.89 114.418 162.813 114.198 162.657 114.02C162.506 113.842 162.282 113.691 161.987 113.566C161.695 113.441 161.337 113.327 160.913 113.225L159.646 112.907C158.665 112.668 157.89 112.295 157.322 111.787C156.754 111.28 156.472 110.596 156.476 109.736C156.472 109.032 156.659 108.416 157.038 107.889C157.421 107.363 157.945 106.952 158.612 106.657C159.279 106.361 160.036 106.213 160.885 106.213C161.748 106.213 162.502 106.361 163.146 106.657C163.794 106.952 164.298 107.363 164.657 107.889C165.017 108.416 165.203 109.026 165.214 109.719H162.856ZM170.96 118.179C170.062 118.179 169.289 117.997 168.642 117.634C167.998 117.266 167.502 116.747 167.153 116.077C166.805 115.403 166.63 114.605 166.63 113.685C166.63 112.787 166.805 111.999 167.153 111.321C167.502 110.643 167.992 110.115 168.625 109.736C169.261 109.357 170.007 109.168 170.863 109.168C171.439 109.168 171.975 109.261 172.471 109.446C172.971 109.628 173.407 109.903 173.778 110.27C174.153 110.638 174.445 111.1 174.653 111.657C174.861 112.21 174.966 112.857 174.966 113.6V114.264H167.596V112.764H172.687C172.687 112.416 172.611 112.107 172.46 111.838C172.308 111.569 172.098 111.359 171.829 111.208C171.564 111.052 171.255 110.975 170.903 110.975C170.536 110.975 170.21 111.06 169.926 111.23C169.646 111.397 169.426 111.622 169.267 111.907C169.108 112.187 169.026 112.499 169.022 112.844V114.27C169.022 114.702 169.102 115.075 169.261 115.389C169.424 115.704 169.653 115.946 169.949 116.117C170.244 116.287 170.594 116.372 171 116.372C171.269 116.372 171.515 116.335 171.738 116.259C171.962 116.183 172.153 116.069 172.312 115.918C172.471 115.766 172.592 115.581 172.676 115.361L174.914 115.509C174.801 116.047 174.568 116.516 174.216 116.918C173.867 117.316 173.416 117.626 172.863 117.85C172.314 118.069 171.68 118.179 170.96 118.179ZM176.545 118.009V109.282H178.892V110.804H178.983C179.142 110.263 179.409 109.853 179.784 109.577C180.159 109.297 180.591 109.157 181.079 109.157C181.2 109.157 181.331 109.164 181.471 109.179C181.611 109.194 181.735 109.215 181.841 109.242V111.389C181.727 111.355 181.57 111.325 181.369 111.299C181.168 111.272 180.985 111.259 180.818 111.259C180.462 111.259 180.144 111.336 179.863 111.492C179.587 111.643 179.367 111.855 179.204 112.128C179.045 112.401 178.966 112.715 178.966 113.071V118.009H176.545ZM191.494 109.282L188.443 118.009H185.716L182.664 109.282H185.221L187.034 115.526H187.125L188.931 109.282H191.494ZM192.733 118.009V109.282H195.153V118.009H192.733ZM193.949 108.157C193.589 108.157 193.28 108.037 193.022 107.799C192.769 107.556 192.642 107.266 192.642 106.929C192.642 106.596 192.769 106.31 193.022 106.071C193.28 105.829 193.589 105.708 193.949 105.708C194.308 105.708 194.615 105.829 194.869 106.071C195.127 106.31 195.255 106.596 195.255 106.929C195.255 107.266 195.127 107.556 194.869 107.799C194.615 108.037 194.308 108.157 193.949 108.157ZM201.035 118.179C200.141 118.179 199.372 117.99 198.728 117.611C198.088 117.228 197.596 116.698 197.251 116.02C196.91 115.342 196.74 114.562 196.74 113.679C196.74 112.785 196.912 112.001 197.257 111.327C197.605 110.649 198.1 110.121 198.74 109.742C199.38 109.359 200.141 109.168 201.024 109.168C201.785 109.168 202.452 109.306 203.024 109.583C203.596 109.859 204.048 110.247 204.382 110.747C204.715 111.247 204.899 111.835 204.933 112.509H202.649C202.584 112.073 202.414 111.723 202.137 111.458C201.865 111.189 201.507 111.054 201.064 111.054C200.689 111.054 200.361 111.157 200.081 111.361C199.804 111.562 199.588 111.855 199.433 112.242C199.278 112.628 199.2 113.096 199.2 113.645C199.2 114.202 199.276 114.675 199.427 115.066C199.583 115.456 199.8 115.753 200.081 115.958C200.361 116.162 200.689 116.264 201.064 116.264C201.34 116.264 201.588 116.208 201.808 116.094C202.031 115.98 202.215 115.816 202.359 115.6C202.507 115.38 202.603 115.117 202.649 114.81H204.933C204.895 115.477 204.713 116.064 204.387 116.571C204.065 117.075 203.62 117.469 203.052 117.753C202.484 118.037 201.812 118.179 201.035 118.179ZM210.46 118.179C209.562 118.179 208.789 117.997 208.142 117.634C207.498 117.266 207.002 116.747 206.653 116.077C206.305 115.403 206.13 114.605 206.13 113.685C206.13 112.787 206.305 111.999 206.653 111.321C207.002 110.643 207.492 110.115 208.125 109.736C208.761 109.357 209.507 109.168 210.363 109.168C210.939 109.168 211.475 109.261 211.971 109.446C212.471 109.628 212.907 109.903 213.278 110.27C213.653 110.638 213.945 111.1 214.153 111.657C214.361 112.21 214.466 112.857 214.466 113.6V114.264H207.096V112.764H212.187C212.187 112.416 212.111 112.107 211.96 111.838C211.808 111.569 211.598 111.359 211.329 111.208C211.064 111.052 210.755 110.975 210.403 110.975C210.036 110.975 209.71 111.06 209.426 111.23C209.146 111.397 208.926 111.622 208.767 111.907C208.608 112.187 208.526 112.499 208.522 112.844V114.27C208.522 114.702 208.602 115.075 208.761 115.389C208.924 115.704 209.153 115.946 209.449 116.117C209.744 116.287 210.094 116.372 210.5 116.372C210.769 116.372 211.015 116.335 211.238 116.259C211.462 116.183 211.653 116.069 211.812 115.918C211.971 115.766 212.092 115.581 212.176 115.361L214.414 115.509C214.301 116.047 214.068 116.516 213.716 116.918C213.367 117.316 212.916 117.626 212.363 117.85C211.814 118.069 211.18 118.179 210.46 118.179Z" fill="#FFFAFA"/>
<rect x="338.764" y="19.5" width="100.736" height="50.5747" fill="#0773C1" stroke="black" stroke-linejoin="round"/>
<path d="M356.012 50.1845V38.5482H360.603C361.482 38.5482 362.232 38.7054 362.853 39.0198C363.478 39.3304 363.953 39.7717 364.279 40.3436C364.609 40.9118 364.773 41.5804 364.773 42.3493C364.773 43.122 364.607 43.7868 364.273 44.3436C363.94 44.8967 363.457 45.3209 362.825 45.6164C362.196 45.9118 361.434 46.0595 360.54 46.0595H357.467V44.0823H360.143C360.612 44.0823 361.003 44.0179 361.313 43.8891C361.624 43.7603 361.855 43.5671 362.006 43.3095C362.162 43.052 362.239 42.7319 362.239 42.3493C362.239 41.9629 362.162 41.6372 362.006 41.372C361.855 41.1069 361.622 40.9061 361.307 40.7698C360.997 40.6296 360.605 40.5595 360.131 40.5595H358.472V50.1845H356.012ZM362.296 44.8891L365.188 50.1845H362.472L359.643 44.8891H362.296ZM370.303 50.355C369.406 50.355 368.633 50.1732 367.985 49.8095C367.341 49.4421 366.845 48.9232 366.496 48.2527C366.148 47.5785 365.974 46.7811 365.974 45.8607C365.974 44.9629 366.148 44.1751 366.496 43.497C366.845 42.819 367.335 42.2906 367.968 41.9118C368.604 41.533 369.351 41.3436 370.207 41.3436C370.782 41.3436 371.318 41.4364 371.815 41.622C372.315 41.8039 372.75 42.0785 373.121 42.4459C373.496 42.8133 373.788 43.2754 373.996 43.8323C374.205 44.3853 374.309 45.033 374.309 45.7754V46.4402H366.94V44.9402H372.031C372.031 44.5917 371.955 44.283 371.803 44.0141C371.652 43.7451 371.441 43.5349 371.173 43.3834C370.907 43.2281 370.599 43.1504 370.246 43.1504C369.879 43.1504 369.553 43.2357 369.269 43.4061C368.989 43.5728 368.769 43.7982 368.61 44.0823C368.451 44.3626 368.37 44.6751 368.366 45.0198V46.4459C368.366 46.8777 368.445 47.2508 368.604 47.5652C368.767 47.8796 368.996 48.122 369.292 48.2925C369.587 48.4629 369.938 48.5482 370.343 48.5482C370.612 48.5482 370.858 48.5103 371.082 48.4345C371.305 48.3588 371.496 48.2451 371.656 48.0936C371.815 47.9421 371.936 47.7565 372.019 47.5368L374.258 47.6845C374.144 48.2224 373.911 48.6921 373.559 49.0936C373.21 49.4914 372.76 49.802 372.207 50.0254C371.657 50.2451 371.023 50.355 370.303 50.355ZM369.281 40.3323L370.485 37.747H372.724L370.991 40.3323H369.281ZM375.888 53.4573V41.4573H378.275V42.9232H378.383C378.489 42.6883 378.642 42.4497 378.843 42.2073C379.048 41.9611 379.313 41.7565 379.638 41.5936C379.968 41.427 380.377 41.3436 380.866 41.3436C381.502 41.3436 382.089 41.5103 382.627 41.8436C383.165 42.1732 383.595 42.6713 383.917 43.3379C384.239 44.0008 384.4 44.8323 384.4 45.8323C384.4 46.8058 384.243 47.6277 383.928 48.2982C383.618 48.9648 383.193 49.4705 382.656 49.8152C382.121 50.1561 381.523 50.3266 380.86 50.3266C380.39 50.3266 379.991 50.2489 379.661 50.0936C379.335 49.9383 379.068 49.7433 378.86 49.5084C378.652 49.2698 378.493 49.0292 378.383 48.7868H378.309V53.4573H375.888ZM378.258 45.8209C378.258 46.3398 378.33 46.7925 378.474 47.1789C378.618 47.5652 378.826 47.8664 379.099 48.0823C379.371 48.2944 379.703 48.4004 380.093 48.4004C380.487 48.4004 380.82 48.2925 381.093 48.0766C381.366 47.8569 381.572 47.5539 381.712 47.1675C381.856 46.7773 381.928 46.3285 381.928 45.8209C381.928 45.3171 381.858 44.8739 381.718 44.4914C381.578 44.1088 381.371 43.8095 381.099 43.5936C380.826 43.3777 380.491 43.2698 380.093 43.2698C379.699 43.2698 379.366 43.3739 379.093 43.5823C378.824 43.7906 378.618 44.0861 378.474 44.4686C378.33 44.8512 378.258 45.302 378.258 45.8209ZM388.434 38.5482V50.1845H386.013V38.5482H388.434ZM390.373 50.1845V41.4573H392.793V50.1845H390.373ZM391.589 40.3323C391.229 40.3323 390.92 40.2129 390.663 39.9743C390.409 39.7319 390.282 39.4421 390.282 39.105C390.282 38.7717 390.409 38.4857 390.663 38.247C390.92 38.0046 391.229 37.8834 391.589 37.8834C391.949 37.8834 392.255 38.0046 392.509 38.247C392.767 38.4857 392.896 38.7717 392.896 39.105C392.896 39.4421 392.767 39.7319 392.509 39.9743C392.255 40.2129 391.949 40.3323 391.589 40.3323ZM398.675 50.355C397.781 50.355 397.013 50.1656 396.369 49.7868C395.728 49.4042 395.236 48.8739 394.891 48.1959C394.55 47.5179 394.38 46.7376 394.38 45.855C394.38 44.9611 394.552 44.177 394.897 43.5027C395.245 42.8247 395.74 42.2963 396.38 41.9175C397.02 41.5349 397.781 41.3436 398.664 41.3436C399.425 41.3436 400.092 41.4819 400.664 41.7584C401.236 42.0349 401.689 42.4232 402.022 42.9232C402.355 43.4232 402.539 44.0103 402.573 44.6845H400.289C400.225 44.2489 400.054 43.8986 399.778 43.6334C399.505 43.3645 399.147 43.23 398.704 43.23C398.329 43.23 398.001 43.3323 397.721 43.5368C397.444 43.7376 397.228 44.0311 397.073 44.4175C396.918 44.8039 396.84 45.2717 396.84 45.8209C396.84 46.3777 396.916 46.8512 397.067 47.2414C397.223 47.6315 397.441 47.9289 397.721 48.1334C398.001 48.3379 398.329 48.4402 398.704 48.4402C398.98 48.4402 399.228 48.3834 399.448 48.2698C399.672 48.1561 399.855 47.9914 399.999 47.7754C400.147 47.5558 400.244 47.2925 400.289 46.9857H402.573C402.535 47.6523 402.353 48.2395 402.028 48.747C401.706 49.2508 401.261 49.6448 400.692 49.9289C400.124 50.2129 399.452 50.355 398.675 50.355ZM406.611 50.3493C406.055 50.3493 405.558 50.2527 405.123 50.0595C404.687 49.8626 404.343 49.5728 404.089 49.1902C403.839 48.8039 403.714 48.3228 403.714 47.747C403.714 47.2622 403.803 46.855 403.981 46.5254C404.159 46.1959 404.401 45.9308 404.708 45.73C405.015 45.5292 405.363 45.3777 405.754 45.2754C406.147 45.1732 406.56 45.1012 406.992 45.0595C407.5 45.0065 407.909 44.9573 408.219 44.9118C408.53 44.8626 408.755 44.7906 408.896 44.6959C409.036 44.6012 409.106 44.4611 409.106 44.2754V44.2414C409.106 43.8815 408.992 43.6031 408.765 43.4061C408.541 43.2092 408.223 43.1107 407.81 43.1107C407.375 43.1107 407.028 43.2073 406.771 43.4004C406.513 43.5898 406.343 43.8285 406.259 44.1164L404.021 43.9345C404.134 43.4042 404.358 42.9459 404.691 42.5595C405.024 42.1694 405.454 41.8701 405.981 41.6618C406.511 41.4497 407.125 41.3436 407.822 41.3436C408.307 41.3436 408.771 41.4004 409.214 41.5141C409.661 41.6277 410.057 41.8039 410.401 42.0425C410.75 42.2811 411.024 42.5879 411.225 42.9629C411.426 43.3342 411.526 43.7792 411.526 44.2982V50.1845H409.231V48.9743H409.163C409.022 49.247 408.835 49.4876 408.6 49.6959C408.365 49.9004 408.083 50.0614 407.754 50.1789C407.424 50.2925 407.043 50.3493 406.611 50.3493ZM407.305 48.6789C407.661 48.6789 407.975 48.6088 408.248 48.4686C408.521 48.3247 408.735 48.1315 408.89 47.8891C409.045 47.6467 409.123 47.372 409.123 47.0652V46.1391C409.047 46.1883 408.943 46.2338 408.81 46.2754C408.682 46.3133 408.536 46.3493 408.373 46.3834C408.21 46.4137 408.047 46.4421 407.884 46.4686C407.721 46.4914 407.574 46.5122 407.441 46.5311C407.157 46.5728 406.909 46.6391 406.697 46.73C406.485 46.8209 406.32 46.944 406.202 47.0993C406.085 47.2508 406.026 47.4402 406.026 47.6675C406.026 47.997 406.146 48.2489 406.384 48.4232C406.627 48.5936 406.933 48.6789 407.305 48.6789ZM422.147 38.5482V50.1845H419.687V40.8834H419.619L416.954 42.5539V40.372L419.834 38.5482H422.147Z" fill="#FFFAFA"/>
<rect x="338.764" y="88.0308" width="100.736" height="50.5747" fill="#0773C1" stroke="black" stroke-linejoin="round"/>
<path d="M354.887 118.715V107.079H359.478C360.357 107.079 361.107 107.236 361.728 107.551C362.353 107.861 362.828 108.302 363.154 108.874C363.484 109.443 363.648 110.111 363.648 110.88C363.648 111.653 363.482 112.318 363.148 112.874C362.815 113.427 362.332 113.852 361.7 114.147C361.071 114.443 360.309 114.59 359.415 114.59H356.342V112.613H359.018C359.487 112.613 359.878 112.549 360.188 112.42C360.499 112.291 360.73 112.098 360.881 111.84C361.037 111.583 361.114 111.263 361.114 110.88C361.114 110.494 361.037 110.168 360.881 109.903C360.73 109.638 360.497 109.437 360.182 109.301C359.872 109.16 359.48 109.09 359.006 109.09H357.347V118.715H354.887ZM361.171 113.42L364.063 118.715H361.347L358.518 113.42H361.171ZM369.178 118.886C368.281 118.886 367.508 118.704 366.86 118.34C366.216 117.973 365.72 117.454 365.371 116.783C365.023 116.109 364.849 115.312 364.849 114.391C364.849 113.494 365.023 112.706 365.371 112.028C365.72 111.35 366.21 110.821 366.843 110.443C367.479 110.064 368.226 109.874 369.082 109.874C369.657 109.874 370.193 109.967 370.69 110.153C371.19 110.335 371.625 110.609 371.996 110.977C372.371 111.344 372.663 111.806 372.871 112.363C373.08 112.916 373.184 113.564 373.184 114.306V114.971H365.815V113.471H370.906C370.906 113.122 370.83 112.814 370.678 112.545C370.527 112.276 370.316 112.066 370.048 111.914C369.782 111.759 369.474 111.681 369.121 111.681C368.754 111.681 368.428 111.766 368.144 111.937C367.864 112.104 367.644 112.329 367.485 112.613C367.326 112.893 367.245 113.206 367.241 113.551V114.977C367.241 115.408 367.32 115.782 367.479 116.096C367.642 116.41 367.871 116.653 368.167 116.823C368.462 116.994 368.813 117.079 369.218 117.079C369.487 117.079 369.733 117.041 369.957 116.965C370.18 116.89 370.371 116.776 370.531 116.624C370.69 116.473 370.811 116.287 370.894 116.068L373.133 116.215C373.019 116.753 372.786 117.223 372.434 117.624C372.085 118.022 371.635 118.333 371.082 118.556C370.532 118.776 369.898 118.886 369.178 118.886ZM368.156 108.863L369.36 106.278H371.599L369.866 108.863H368.156ZM374.763 121.988V109.988H377.15V111.454H377.258C377.364 111.219 377.517 110.98 377.718 110.738C377.923 110.492 378.188 110.287 378.513 110.124C378.843 109.958 379.252 109.874 379.741 109.874C380.377 109.874 380.964 110.041 381.502 110.374C382.04 110.704 382.47 111.202 382.792 111.869C383.114 112.532 383.275 113.363 383.275 114.363C383.275 115.337 383.118 116.158 382.803 116.829C382.493 117.496 382.068 118.001 381.531 118.346C380.996 118.687 380.398 118.857 379.735 118.857C379.265 118.857 378.866 118.78 378.536 118.624C378.21 118.469 377.943 118.274 377.735 118.039C377.527 117.801 377.368 117.56 377.258 117.318H377.184V121.988H374.763ZM377.133 114.352C377.133 114.871 377.205 115.323 377.349 115.71C377.493 116.096 377.701 116.397 377.974 116.613C378.246 116.825 378.578 116.931 378.968 116.931C379.362 116.931 379.695 116.823 379.968 116.607C380.241 116.388 380.447 116.085 380.587 115.698C380.731 115.308 380.803 114.859 380.803 114.352C380.803 113.848 380.733 113.405 380.593 113.022C380.453 112.64 380.246 112.34 379.974 112.124C379.701 111.908 379.366 111.801 378.968 111.801C378.574 111.801 378.241 111.905 377.968 112.113C377.699 112.321 377.493 112.617 377.349 112.999C377.205 113.382 377.133 113.833 377.133 114.352ZM387.309 107.079V118.715H384.888V107.079H387.309ZM389.248 118.715V109.988H391.668V118.715H389.248ZM390.464 108.863C390.104 108.863 389.795 108.744 389.538 108.505C389.284 108.263 389.157 107.973 389.157 107.636C389.157 107.302 389.284 107.016 389.538 106.778C389.795 106.535 390.104 106.414 390.464 106.414C390.824 106.414 391.13 106.535 391.384 106.778C391.642 107.016 391.771 107.302 391.771 107.636C391.771 107.973 391.642 108.263 391.384 108.505C391.13 108.744 390.824 108.863 390.464 108.863ZM397.55 118.886C396.656 118.886 395.888 118.696 395.244 118.318C394.603 117.935 394.111 117.405 393.766 116.727C393.425 116.049 393.255 115.268 393.255 114.386C393.255 113.492 393.427 112.708 393.772 112.033C394.12 111.355 394.615 110.827 395.255 110.448C395.895 110.066 396.656 109.874 397.539 109.874C398.3 109.874 398.967 110.013 399.539 110.289C400.111 110.566 400.564 110.954 400.897 111.454C401.23 111.954 401.414 112.541 401.448 113.215H399.164C399.1 112.78 398.929 112.429 398.653 112.164C398.38 111.895 398.022 111.761 397.579 111.761C397.204 111.761 396.876 111.863 396.596 112.068C396.319 112.268 396.103 112.562 395.948 112.948C395.793 113.335 395.715 113.802 395.715 114.352C395.715 114.908 395.791 115.382 395.942 115.772C396.098 116.162 396.316 116.46 396.596 116.664C396.876 116.869 397.204 116.971 397.579 116.971C397.855 116.971 398.103 116.914 398.323 116.801C398.547 116.687 398.73 116.522 398.874 116.306C399.022 116.087 399.119 115.823 399.164 115.516H401.448C401.41 116.183 401.228 116.77 400.903 117.278C400.581 117.782 400.136 118.176 399.567 118.46C398.999 118.744 398.327 118.886 397.55 118.886ZM405.486 118.88C404.93 118.88 404.433 118.783 403.998 118.59C403.562 118.393 403.218 118.104 402.964 117.721C402.714 117.335 402.589 116.854 402.589 116.278C402.589 115.793 402.678 115.386 402.856 115.056C403.034 114.727 403.276 114.462 403.583 114.261C403.89 114.06 404.238 113.908 404.629 113.806C405.022 113.704 405.435 113.632 405.867 113.59C406.375 113.537 406.784 113.488 407.094 113.443C407.405 113.393 407.63 113.321 407.771 113.227C407.911 113.132 407.981 112.992 407.981 112.806V112.772C407.981 112.412 407.867 112.134 407.64 111.937C407.416 111.74 407.098 111.641 406.685 111.641C406.25 111.641 405.903 111.738 405.646 111.931C405.388 112.121 405.218 112.359 405.134 112.647L402.896 112.465C403.009 111.935 403.233 111.477 403.566 111.09C403.899 110.7 404.329 110.401 404.856 110.193C405.386 109.98 406 109.874 406.697 109.874C407.182 109.874 407.646 109.931 408.089 110.045C408.536 110.158 408.932 110.335 409.276 110.573C409.625 110.812 409.899 111.119 410.1 111.494C410.301 111.865 410.401 112.31 410.401 112.829V118.715H408.106V117.505H408.038C407.897 117.778 407.71 118.018 407.475 118.227C407.24 118.431 406.958 118.592 406.629 118.71C406.299 118.823 405.918 118.88 405.486 118.88ZM406.18 117.21C406.536 117.21 406.85 117.14 407.123 116.999C407.396 116.855 407.61 116.662 407.765 116.42C407.92 116.177 407.998 115.903 407.998 115.596V114.67C407.922 114.719 407.818 114.765 407.685 114.806C407.557 114.844 407.411 114.88 407.248 114.914C407.085 114.944 406.922 114.973 406.759 114.999C406.596 115.022 406.449 115.043 406.316 115.062C406.032 115.104 405.784 115.17 405.572 115.261C405.36 115.352 405.195 115.475 405.077 115.63C404.96 115.782 404.901 115.971 404.901 116.198C404.901 116.528 405.021 116.78 405.259 116.954C405.502 117.124 405.808 117.21 406.18 117.21ZM415.959 118.715V116.943L420.102 113.107C420.454 112.766 420.749 112.46 420.988 112.187C421.23 111.914 421.414 111.647 421.539 111.386C421.664 111.121 421.727 110.835 421.727 110.528C421.727 110.187 421.649 109.893 421.494 109.647C421.338 109.397 421.126 109.206 420.857 109.073C420.588 108.937 420.283 108.869 419.942 108.869C419.586 108.869 419.276 108.941 419.011 109.085C418.745 109.229 418.541 109.435 418.397 109.704C418.253 109.973 418.181 110.293 418.181 110.664H415.846C415.846 109.903 416.018 109.242 416.363 108.681C416.708 108.121 417.191 107.687 417.812 107.38C418.433 107.073 419.149 106.92 419.959 106.92C420.793 106.92 421.518 107.068 422.136 107.363C422.757 107.655 423.24 108.06 423.584 108.579C423.929 109.098 424.102 109.693 424.102 110.363C424.102 110.802 424.014 111.236 423.84 111.664C423.67 112.092 423.365 112.568 422.925 113.09C422.486 113.609 421.867 114.232 421.067 114.96L419.369 116.624V116.704H424.255V118.715H415.959Z" fill="#FFFAFA"/>
<rect x="338.764" y="153.736" width="100.736" height="50.5747" fill="#0773C1" stroke="black" stroke-linejoin="round"/>
<path d="M354.653 184.42V172.784H359.244C360.122 172.784 360.872 172.941 361.494 173.255C362.119 173.566 362.594 174.007 362.92 174.579C363.249 175.147 363.414 175.816 363.414 176.585C363.414 177.358 363.247 178.022 362.914 178.579C362.581 179.132 362.098 179.556 361.465 179.852C360.836 180.147 360.075 180.295 359.181 180.295H356.107V178.318H358.783C359.253 178.318 359.643 178.253 359.954 178.125C360.264 177.996 360.495 177.803 360.647 177.545C360.802 177.287 360.88 176.967 360.88 176.585C360.88 176.198 360.802 175.873 360.647 175.608C360.495 175.342 360.263 175.142 359.948 175.005C359.638 174.865 359.245 174.795 358.772 174.795H357.113V184.42H354.653ZM360.937 179.125L363.829 184.42H361.113L358.283 179.125H360.937ZM368.944 184.59C368.046 184.59 367.273 184.409 366.626 184.045C365.982 183.678 365.486 183.159 365.137 182.488C364.789 181.814 364.614 181.017 364.614 180.096C364.614 179.198 364.789 178.411 365.137 177.733C365.486 177.054 365.976 176.526 366.609 176.147C367.245 175.769 367.991 175.579 368.847 175.579C369.423 175.579 369.959 175.672 370.455 175.858C370.955 176.039 371.391 176.314 371.762 176.681C372.137 177.049 372.429 177.511 372.637 178.068C372.845 178.621 372.95 179.269 372.95 180.011V180.676H365.58V179.176H370.671C370.671 178.827 370.595 178.519 370.444 178.25C370.292 177.981 370.082 177.77 369.813 177.619C369.548 177.464 369.239 177.386 368.887 177.386C368.52 177.386 368.194 177.471 367.91 177.642C367.629 177.808 367.41 178.034 367.251 178.318C367.092 178.598 367.01 178.911 367.006 179.255V180.681C367.006 181.113 367.086 181.486 367.245 181.801C367.408 182.115 367.637 182.358 367.932 182.528C368.228 182.698 368.578 182.784 368.984 182.784C369.253 182.784 369.499 182.746 369.722 182.67C369.946 182.594 370.137 182.481 370.296 182.329C370.455 182.178 370.576 181.992 370.66 181.772L372.898 181.92C372.785 182.458 372.552 182.928 372.2 183.329C371.851 183.727 371.4 184.037 370.847 184.261C370.298 184.481 369.664 184.59 368.944 184.59ZM367.921 174.568L369.126 171.983H371.364L369.631 174.568H367.921ZM374.529 187.693V175.693H376.915V177.159H377.023C377.129 176.924 377.283 176.685 377.484 176.443C377.688 176.197 377.953 175.992 378.279 175.829C378.609 175.662 379.018 175.579 379.506 175.579C380.143 175.579 380.73 175.746 381.268 176.079C381.806 176.409 382.236 176.907 382.557 177.573C382.879 178.236 383.04 179.068 383.04 180.068C383.04 181.041 382.883 181.863 382.569 182.534C382.258 183.2 381.834 183.706 381.296 184.051C380.762 184.392 380.164 184.562 379.501 184.562C379.031 184.562 378.631 184.484 378.302 184.329C377.976 184.174 377.709 183.979 377.501 183.744C377.292 183.505 377.133 183.265 377.023 183.022H376.95V187.693H374.529ZM376.898 180.056C376.898 180.575 376.97 181.028 377.114 181.414C377.258 181.801 377.467 182.102 377.739 182.318C378.012 182.53 378.343 182.636 378.734 182.636C379.128 182.636 379.461 182.528 379.734 182.312C380.006 182.092 380.213 181.789 380.353 181.403C380.497 181.013 380.569 180.564 380.569 180.056C380.569 179.553 380.499 179.109 380.359 178.727C380.218 178.344 380.012 178.045 379.739 177.829C379.467 177.613 379.131 177.505 378.734 177.505C378.34 177.505 378.006 177.609 377.734 177.818C377.465 178.026 377.258 178.322 377.114 178.704C376.97 179.087 376.898 179.537 376.898 180.056ZM387.075 172.784V184.42H384.654V172.784H387.075ZM389.013 184.42V175.693H391.434V184.42H389.013ZM390.229 174.568C389.87 174.568 389.561 174.448 389.303 174.21C389.049 173.967 388.923 173.678 388.923 173.34C388.923 173.007 389.049 172.721 389.303 172.483C389.561 172.24 389.87 172.119 390.229 172.119C390.589 172.119 390.896 172.24 391.15 172.483C391.407 172.721 391.536 173.007 391.536 173.34C391.536 173.678 391.407 173.967 391.15 174.21C390.896 174.448 390.589 174.568 390.229 174.568ZM397.316 184.59C396.422 184.59 395.653 184.401 395.009 184.022C394.369 183.64 393.877 183.109 393.532 182.431C393.191 181.753 393.021 180.973 393.021 180.09C393.021 179.197 393.193 178.412 393.538 177.738C393.886 177.06 394.38 176.532 395.021 176.153C395.661 175.77 396.422 175.579 397.305 175.579C398.066 175.579 398.733 175.717 399.305 175.994C399.877 176.27 400.329 176.659 400.663 177.159C400.996 177.659 401.18 178.246 401.214 178.92H398.93C398.865 178.484 398.695 178.134 398.418 177.869C398.146 177.6 397.788 177.465 397.344 177.465C396.969 177.465 396.642 177.568 396.361 177.772C396.085 177.973 395.869 178.267 395.714 178.653C395.558 179.039 395.481 179.507 395.481 180.056C395.481 180.613 395.557 181.087 395.708 181.477C395.863 181.867 396.081 182.164 396.361 182.369C396.642 182.573 396.969 182.676 397.344 182.676C397.621 182.676 397.869 182.619 398.089 182.505C398.312 182.392 398.496 182.227 398.64 182.011C398.788 181.791 398.884 181.528 398.93 181.221H401.214C401.176 181.888 400.994 182.475 400.668 182.983C400.346 183.486 399.901 183.88 399.333 184.164C398.765 184.448 398.093 184.59 397.316 184.59ZM405.252 184.585C404.695 184.585 404.199 184.488 403.763 184.295C403.328 184.098 402.983 183.808 402.729 183.426C402.479 183.039 402.354 182.558 402.354 181.983C402.354 181.498 402.443 181.09 402.621 180.761C402.799 180.431 403.042 180.166 403.349 179.965C403.656 179.765 404.004 179.613 404.394 179.511C404.788 179.409 405.201 179.337 405.633 179.295C406.14 179.242 406.549 179.193 406.86 179.147C407.171 179.098 407.396 179.026 407.536 178.931C407.676 178.837 407.746 178.697 407.746 178.511V178.477C407.746 178.117 407.633 177.839 407.406 177.642C407.182 177.445 406.864 177.346 406.451 177.346C406.015 177.346 405.669 177.443 405.411 177.636C405.154 177.825 404.983 178.064 404.9 178.352L402.661 178.17C402.775 177.64 402.998 177.181 403.332 176.795C403.665 176.405 404.095 176.106 404.621 175.897C405.152 175.685 405.765 175.579 406.462 175.579C406.947 175.579 407.411 175.636 407.854 175.75C408.301 175.863 408.697 176.039 409.042 176.278C409.39 176.517 409.665 176.823 409.866 177.198C410.066 177.57 410.167 178.015 410.167 178.534V184.42H407.871V183.21H407.803C407.663 183.483 407.476 183.723 407.241 183.931C407.006 184.136 406.724 184.297 406.394 184.414C406.065 184.528 405.684 184.585 405.252 184.585ZM405.945 182.914C406.301 182.914 406.616 182.844 406.888 182.704C407.161 182.56 407.375 182.367 407.531 182.125C407.686 181.882 407.763 181.608 407.763 181.301V180.375C407.688 180.424 407.584 180.469 407.451 180.511C407.322 180.549 407.176 180.585 407.013 180.619C406.851 180.649 406.688 180.678 406.525 180.704C406.362 180.727 406.214 180.748 406.082 180.767C405.798 180.808 405.549 180.875 405.337 180.965C405.125 181.056 404.96 181.179 404.843 181.335C404.726 181.486 404.667 181.676 404.667 181.903C404.667 182.233 404.786 182.484 405.025 182.659C405.267 182.829 405.574 182.914 405.945 182.914ZM420.026 184.579C419.178 184.579 418.422 184.433 417.759 184.142C417.1 183.846 416.579 183.441 416.197 182.926C415.818 182.407 415.623 181.808 415.611 181.13H418.089C418.104 181.414 418.197 181.664 418.367 181.88C418.541 182.092 418.772 182.257 419.06 182.375C419.348 182.492 419.672 182.551 420.032 182.551C420.407 182.551 420.738 182.484 421.026 182.352C421.314 182.219 421.539 182.036 421.702 181.801C421.865 181.566 421.947 181.295 421.947 180.988C421.947 180.678 421.86 180.403 421.685 180.164C421.515 179.922 421.269 179.733 420.947 179.596C420.629 179.46 420.25 179.392 419.81 179.392H418.725V177.585H419.81C420.182 177.585 420.509 177.52 420.793 177.392C421.081 177.263 421.305 177.085 421.464 176.858C421.623 176.626 421.702 176.358 421.702 176.051C421.702 175.759 421.632 175.503 421.492 175.284C421.356 175.06 421.163 174.886 420.913 174.761C420.666 174.636 420.379 174.573 420.049 174.573C419.716 174.573 419.411 174.634 419.134 174.755C418.858 174.873 418.636 175.041 418.469 175.261C418.303 175.481 418.214 175.738 418.202 176.034H415.844C415.856 175.363 416.047 174.772 416.418 174.261C416.789 173.75 417.289 173.35 417.918 173.062C418.551 172.77 419.265 172.625 420.06 172.625C420.863 172.625 421.566 172.77 422.168 173.062C422.771 173.354 423.238 173.748 423.572 174.244C423.909 174.736 424.075 175.289 424.072 175.903C424.075 176.554 423.873 177.098 423.464 177.534C423.058 177.969 422.53 178.246 421.879 178.363V178.454C422.735 178.564 423.386 178.861 423.833 179.346C424.284 179.827 424.507 180.429 424.504 181.153C424.507 181.816 424.316 182.405 423.93 182.92C423.547 183.435 423.019 183.84 422.344 184.136C421.67 184.431 420.897 184.579 420.026 184.579Z" fill="#FFFAFA"/>
<path d="M332.673 44.7088C332.825 43.8944 332.288 43.1112 331.473 42.9595L318.202 40.4873C317.387 40.3356 316.604 40.8728 316.452 41.6872C316.301 42.5017 316.838 43.2848 317.652 43.4366L329.449 45.634L327.252 57.4311C327.1 58.2455 327.637 59.0287 328.452 59.1804C329.266 59.3322 330.049 58.7949 330.201 57.9805L332.673 44.7088ZM246.56 104.311L332.047 45.6711L330.35 43.1971L244.863 101.837L246.56 104.311Z" fill="#040404"/>
<path d="M332.277 113.289C332.853 112.694 332.837 111.744 332.241 111.168L322.538 101.783C321.942 101.207 320.992 101.223 320.417 101.818C319.841 102.414 319.856 103.363 320.452 103.939L329.077 112.282L320.735 120.907C320.159 121.503 320.175 122.453 320.77 123.028C321.366 123.604 322.315 123.589 322.891 122.993L332.277 113.289ZM245.737 115.171L331.223 113.746L331.173 110.747L245.687 112.172L245.737 115.171Z" fill="#0D0D0D"/>
<path d="M327.26 180.139C328.071 179.974 328.595 179.181 328.429 178.37L325.728 165.142C325.563 164.331 324.77 163.807 323.959 163.973C323.147 164.139 322.623 164.931 322.789 165.743L325.19 177.5L313.432 179.901C312.621 180.066 312.097 180.859 312.263 181.671C312.429 182.482 313.221 183.006 314.033 182.84L327.26 180.139ZM244.885 126.227L326.133 179.921L327.787 177.418L246.539 123.724L244.885 126.227Z" fill="#040404"/>
<path d="M16 113C16 117.418 19.5817 121 24 121C28.4183 121 32 117.418 32 113C32 108.582 28.4183 105 24 105C19.5817 105 16 108.582 16 113ZM124.061 114.061C124.646 113.475 124.646 112.525 124.061 111.939L114.515 102.393C113.929 101.808 112.979 101.808 112.393 102.393C111.808 102.979 111.808 103.929 112.393 104.515L120.879 113L112.393 121.485C111.808 122.071 111.808 123.021 112.393 123.607C112.979 124.192 113.929 124.192 114.515 123.607L124.061 114.061ZM24 114.5L123 114.5L123 111.5L24 111.5L24 114.5Z" fill="#040404"/>
</svg>
