<svg width="475" height="84" viewBox="0 0 475 84" fill="none" xmlns="http://www.w3.org/2000/svg">
<rect width="475" height="84" fill="white"/>
<path d="M40.3288 37V28.2727H43.772C44.4339 28.2727 44.9979 28.3991 45.4638 28.652C45.9297 28.902 46.2848 29.25 46.5291 29.696C46.7763 30.1392 46.8999 30.6506 46.8999 31.2301C46.8999 31.8097 46.7749 32.321 46.5249 32.7642C46.2749 33.2074 45.9126 33.5526 45.4382 33.7997C44.9666 34.0469 44.3956 34.1705 43.7251 34.1705H41.5305V32.6918H43.4268C43.782 32.6918 44.0746 32.6307 44.3047 32.5085C44.5376 32.3835 44.7109 32.2116 44.8246 31.9929C44.9411 31.7713 44.9993 31.517 44.9993 31.2301C44.9993 30.9403 44.9411 30.6875 44.8246 30.4716C44.7109 30.2528 44.5376 30.0838 44.3047 29.9645C44.0717 29.8423 43.7763 29.7812 43.4183 29.7812H42.174V37H40.3288ZM50.9162 37.1278C50.2543 37.1278 49.6818 36.9872 49.1989 36.706C48.7188 36.4219 48.348 36.027 48.0866 35.5213C47.8253 35.0128 47.6946 34.4233 47.6946 33.7528C47.6946 33.0767 47.8253 32.4858 48.0866 31.9801C48.348 31.4716 48.7188 31.0767 49.1989 30.7955C49.6818 30.5114 50.2543 30.3693 50.9162 30.3693C51.5781 30.3693 52.1491 30.5114 52.6293 30.7955C53.1122 31.0767 53.4844 31.4716 53.7457 31.9801C54.0071 32.4858 54.1378 33.0767 54.1378 33.7528C54.1378 34.4233 54.0071 35.0128 53.7457 35.5213C53.4844 36.027 53.1122 36.4219 52.6293 36.706C52.1491 36.9872 51.5781 37.1278 50.9162 37.1278ZM50.9247 35.7216C51.2259 35.7216 51.4773 35.6364 51.679 35.4659C51.8807 35.2926 52.0327 35.0568 52.1349 34.7585C52.2401 34.4602 52.2926 34.1207 52.2926 33.7401C52.2926 33.3594 52.2401 33.0199 52.1349 32.7216C52.0327 32.4233 51.8807 32.1875 51.679 32.0142C51.4773 31.8409 51.2259 31.7543 50.9247 31.7543C50.6207 31.7543 50.3651 31.8409 50.1577 32.0142C49.9531 32.1875 49.7983 32.4233 49.6932 32.7216C49.5909 33.0199 49.5398 33.3594 49.5398 33.7401C49.5398 34.1207 49.5909 34.4602 49.6932 34.7585C49.7983 35.0568 49.9531 35.2926 50.1577 35.4659C50.3651 35.6364 50.6207 35.7216 50.9247 35.7216ZM55.3182 37V30.4545H57.0781V31.5966H57.1463C57.2656 31.1903 57.4659 30.8835 57.7472 30.6761C58.0284 30.4659 58.3523 30.3608 58.7188 30.3608C58.8097 30.3608 58.9077 30.3665 59.0128 30.3778C59.1179 30.3892 59.2102 30.4048 59.2898 30.4247V32.0355C59.2045 32.0099 59.0866 31.9872 58.9361 31.9673C58.7855 31.9474 58.6477 31.9375 58.5227 31.9375C58.2557 31.9375 58.017 31.9957 57.8068 32.1122C57.5994 32.2259 57.4347 32.3849 57.3125 32.5895C57.1932 32.794 57.1335 33.0298 57.1335 33.2969V37H55.3182ZM64.038 30.4545V31.8182H60.0962V30.4545H64.038ZM60.9911 28.8864H62.8065V34.9886C62.8065 35.1562 62.832 35.2869 62.8832 35.3807C62.9343 35.4716 63.0053 35.5355 63.0962 35.5724C63.19 35.6094 63.2979 35.6278 63.4201 35.6278C63.5053 35.6278 63.5906 35.6207 63.6758 35.6065C63.761 35.5895 63.8263 35.5767 63.8718 35.5682L64.1573 36.919C64.0664 36.9474 63.9386 36.9801 63.7738 37.017C63.609 37.0568 63.4087 37.081 63.1729 37.0895C62.7354 37.1065 62.3519 37.0483 62.0224 36.9148C61.6957 36.7812 61.4414 36.5739 61.2596 36.2926C61.0778 36.0114 60.9883 35.6562 60.9911 35.2273V28.8864ZM67.087 37.1236C66.6694 37.1236 66.2972 37.0511 65.9705 36.9062C65.6438 36.7585 65.3853 36.5412 65.195 36.2543C65.0075 35.9645 64.9137 35.6037 64.9137 35.1719C64.9137 34.8082 64.9805 34.5028 65.114 34.2557C65.2475 34.0085 65.4293 33.8097 65.6594 33.6591C65.8896 33.5085 66.1509 33.3949 66.4435 33.3182C66.739 33.2415 67.0487 33.1875 67.3725 33.1562C67.7532 33.1165 68.06 33.0795 68.293 33.0455C68.5259 33.0085 68.695 32.9545 68.8001 32.8835C68.9052 32.8125 68.9577 32.7074 68.9577 32.5682V32.5426C68.9577 32.2727 68.8725 32.0639 68.7021 31.9162C68.5344 31.7685 68.2958 31.6946 67.9862 31.6946C67.6594 31.6946 67.3995 31.767 67.2063 31.9119C67.0131 32.054 66.8853 32.233 66.8228 32.4489L65.1438 32.3125C65.229 31.9148 65.3967 31.571 65.6467 31.2812C65.8967 30.9886 66.2191 30.7642 66.614 30.608C67.0117 30.4489 67.4719 30.3693 67.9947 30.3693C68.3583 30.3693 68.7063 30.4119 69.0387 30.4972C69.3739 30.5824 69.6708 30.7145 69.9293 30.8935C70.1907 31.0724 70.3967 31.3026 70.5472 31.5838C70.6978 31.8622 70.7731 32.196 70.7731 32.5852V37H69.0515V36.0923H69.0004C68.8952 36.2969 68.7546 36.4773 68.5785 36.6335C68.4023 36.7869 68.1907 36.9077 67.9435 36.9957C67.6964 37.081 67.4109 37.1236 67.087 37.1236ZM67.6069 35.8707C67.8739 35.8707 68.1097 35.8182 68.3143 35.7131C68.5188 35.6051 68.6793 35.4602 68.7958 35.2784C68.9123 35.0966 68.9705 34.8906 68.9705 34.6605V33.9659C68.9137 34.0028 68.8356 34.0369 68.7362 34.0682C68.6396 34.0966 68.5302 34.1236 68.408 34.1491C68.2859 34.1719 68.1637 34.1932 68.0415 34.2131C67.9194 34.2301 67.8086 34.2457 67.7092 34.2599C67.4961 34.2912 67.31 34.3409 67.1509 34.4091C66.9918 34.4773 66.8683 34.5696 66.7802 34.6861C66.6921 34.7997 66.6481 34.9418 66.6481 35.1122C66.6481 35.3594 66.7376 35.5483 66.9165 35.679C67.0984 35.8068 67.3285 35.8707 67.6069 35.8707ZM78.1974 37.1193C77.5412 37.1193 76.9574 37.0128 76.446 36.7997C75.9375 36.5838 75.5384 36.2898 75.2486 35.9176C74.9588 35.5455 74.8139 35.1236 74.8139 34.652C74.8139 34.2884 74.8963 33.9545 75.0611 33.6506C75.2287 33.3438 75.456 33.0895 75.7429 32.8878C76.0298 32.6832 76.3509 32.5526 76.706 32.4957V32.4361C76.2401 32.3423 75.8622 32.1165 75.5724 31.7585C75.2827 31.3977 75.1378 30.9787 75.1378 30.5014C75.1378 30.0497 75.2699 29.6477 75.5341 29.2955C75.7983 28.9403 76.1605 28.6619 76.6207 28.4602C77.0838 28.2557 77.6094 28.1534 78.1974 28.1534C78.7855 28.1534 79.3097 28.2557 79.7699 28.4602C80.233 28.6648 80.5966 28.9446 80.8608 29.2997C81.125 29.652 81.2585 30.0526 81.2614 30.5014C81.2585 30.9815 81.1108 31.4006 80.8182 31.7585C80.5256 32.1165 80.1506 32.3423 79.6932 32.4361V32.4957C80.0426 32.5526 80.3594 32.6832 80.6435 32.8878C80.9304 33.0895 81.1577 33.3438 81.3253 33.6506C81.4957 33.9545 81.5824 34.2884 81.5852 34.652C81.5824 35.1236 81.4361 35.5455 81.1463 35.9176C80.8565 36.2898 80.456 36.5838 79.9446 36.7997C79.4361 37.0128 78.8537 37.1193 78.1974 37.1193ZM78.1974 35.7642C78.4901 35.7642 78.7457 35.7116 78.9645 35.6065C79.1832 35.4986 79.3537 35.3509 79.4759 35.1634C79.6009 34.973 79.6634 34.7543 79.6634 34.5071C79.6634 34.2543 79.5994 34.0312 79.4716 33.8381C79.3438 33.642 79.1705 33.4886 78.9517 33.3778C78.733 33.2642 78.4815 33.2074 78.1974 33.2074C77.9162 33.2074 77.6648 33.2642 77.4432 33.3778C77.2216 33.4886 77.0469 33.642 76.919 33.8381C76.794 34.0312 76.7315 34.2543 76.7315 34.5071C76.7315 34.7543 76.7926 34.973 76.9148 35.1634C77.0369 35.3509 77.2088 35.4986 77.4304 35.6065C77.652 35.7116 77.9077 35.7642 78.1974 35.7642ZM78.1974 31.8651C78.4418 31.8651 78.6591 31.8153 78.8494 31.7159C79.0398 31.6165 79.1889 31.4787 79.2969 31.3026C79.4048 31.1264 79.4588 30.9233 79.4588 30.6932C79.4588 30.4659 79.4048 30.267 79.2969 30.0966C79.1889 29.9233 79.0412 29.7884 78.8537 29.6918C78.6662 29.5923 78.4474 29.5426 78.1974 29.5426C77.9503 29.5426 77.7315 29.5923 77.5412 29.6918C77.3509 29.7884 77.2017 29.9233 77.0938 30.0966C76.9886 30.267 76.9361 30.4659 76.9361 30.6932C76.9361 30.9233 76.9901 31.1264 77.098 31.3026C77.206 31.4787 77.3551 31.6165 77.5455 31.7159C77.7358 31.8153 77.9531 31.8651 78.1974 31.8651ZM86.2972 37.1918C85.5643 37.1889 84.9336 37.0085 84.4052 36.6506C83.8796 36.2926 83.4748 35.7741 83.1907 35.0952C82.9094 34.4162 82.7702 33.5994 82.7731 32.6449C82.7731 31.6932 82.9137 30.8821 83.195 30.2116C83.479 29.5412 83.8839 29.0312 84.4094 28.6818C84.9379 28.3295 85.5671 28.1534 86.2972 28.1534C87.0273 28.1534 87.6552 28.3295 88.1808 28.6818C88.7092 29.0341 89.1154 29.5455 89.3995 30.2159C89.6836 30.8835 89.8242 31.6932 89.8214 32.6449C89.8214 33.6023 89.6793 34.4205 89.3952 35.0994C89.114 35.7784 88.7106 36.2969 88.185 36.6548C87.6594 37.0128 87.0302 37.1918 86.2972 37.1918ZM86.2972 35.6619C86.7972 35.6619 87.1964 35.4105 87.4947 34.9077C87.793 34.4048 87.9407 33.6506 87.9379 32.6449C87.9379 31.983 87.8697 31.4318 87.7333 30.9915C87.5998 30.5511 87.4094 30.2202 87.1623 29.9986C86.918 29.777 86.6296 29.6662 86.2972 29.6662C85.8001 29.6662 85.4023 29.9148 85.104 30.4119C84.8058 30.9091 84.6552 31.6534 84.6523 32.6449C84.6523 33.3153 84.7191 33.875 84.8526 34.3239C84.989 34.7699 85.1808 35.1051 85.4279 35.3295C85.6751 35.5511 85.9648 35.6619 86.2972 35.6619Z" fill="black"/>
<path d="M258.231 37V28.2727H261.674C262.336 28.2727 262.9 28.3991 263.366 28.652C263.832 28.902 264.187 29.25 264.431 29.696C264.679 30.1392 264.802 30.6506 264.802 31.2301C264.802 31.8097 264.677 32.321 264.427 32.7642C264.177 33.2074 263.815 33.5526 263.341 33.7997C262.869 34.0469 262.298 34.1705 261.627 34.1705H259.433V32.6918H261.329C261.684 32.6918 261.977 32.6307 262.207 32.5085C262.44 32.3835 262.613 32.2116 262.727 31.9929C262.843 31.7713 262.902 31.517 262.902 31.2301C262.902 30.9403 262.843 30.6875 262.727 30.4716C262.613 30.2528 262.44 30.0838 262.207 29.9645C261.974 29.8423 261.679 29.7812 261.321 29.7812H260.076V37H258.231ZM268.819 37.1278C268.157 37.1278 267.584 36.9872 267.101 36.706C266.621 36.4219 266.25 36.027 265.989 35.5213C265.728 35.0128 265.597 34.4233 265.597 33.7528C265.597 33.0767 265.728 32.4858 265.989 31.9801C266.25 31.4716 266.621 31.0767 267.101 30.7955C267.584 30.5114 268.157 30.3693 268.819 30.3693C269.48 30.3693 270.051 30.5114 270.532 30.7955C271.015 31.0767 271.387 31.4716 271.648 31.9801C271.909 32.4858 272.04 33.0767 272.04 33.7528C272.04 34.4233 271.909 35.0128 271.648 35.5213C271.387 36.027 271.015 36.4219 270.532 36.706C270.051 36.9872 269.48 37.1278 268.819 37.1278ZM268.827 35.7216C269.128 35.7216 269.38 35.6364 269.581 35.4659C269.783 35.2926 269.935 35.0568 270.037 34.7585C270.142 34.4602 270.195 34.1207 270.195 33.7401C270.195 33.3594 270.142 33.0199 270.037 32.7216C269.935 32.4233 269.783 32.1875 269.581 32.0142C269.38 31.8409 269.128 31.7543 268.827 31.7543C268.523 31.7543 268.267 31.8409 268.06 32.0142C267.855 32.1875 267.701 32.4233 267.596 32.7216C267.493 33.0199 267.442 33.3594 267.442 33.7401C267.442 34.1207 267.493 34.4602 267.596 34.7585C267.701 35.0568 267.855 35.2926 268.06 35.4659C268.267 35.6364 268.523 35.7216 268.827 35.7216ZM273.221 37V30.4545H274.98V31.5966H275.049C275.168 31.1903 275.368 30.8835 275.65 30.6761C275.931 30.4659 276.255 30.3608 276.621 30.3608C276.712 30.3608 276.81 30.3665 276.915 30.3778C277.02 30.3892 277.113 30.4048 277.192 30.4247V32.0355C277.107 32.0099 276.989 31.9872 276.838 31.9673C276.688 31.9474 276.55 31.9375 276.425 31.9375C276.158 31.9375 275.919 31.9957 275.709 32.1122C275.502 32.2259 275.337 32.3849 275.215 32.5895C275.096 32.794 275.036 33.0298 275.036 33.2969V37H273.221ZM281.94 30.4545V31.8182H277.999V30.4545H281.94ZM278.893 28.8864H280.709V34.9886C280.709 35.1562 280.734 35.2869 280.786 35.3807C280.837 35.4716 280.908 35.5355 280.999 35.5724C281.092 35.6094 281.2 35.6278 281.322 35.6278C281.408 35.6278 281.493 35.6207 281.578 35.6065C281.663 35.5895 281.729 35.5767 281.774 35.5682L282.06 36.919C281.969 36.9474 281.841 36.9801 281.676 37.017C281.511 37.0568 281.311 37.081 281.075 37.0895C280.638 37.1065 280.254 37.0483 279.925 36.9148C279.598 36.7812 279.344 36.5739 279.162 36.2926C278.98 36.0114 278.891 35.6562 278.893 35.2273V28.8864ZM284.989 37.1236C284.572 37.1236 284.2 37.0511 283.873 36.9062C283.546 36.7585 283.288 36.5412 283.097 36.2543C282.91 35.9645 282.816 35.6037 282.816 35.1719C282.816 34.8082 282.883 34.5028 283.016 34.2557C283.15 34.0085 283.332 33.8097 283.562 33.6591C283.792 33.5085 284.053 33.3949 284.346 33.3182C284.641 33.2415 284.951 33.1875 285.275 33.1562C285.656 33.1165 285.962 33.0795 286.195 33.0455C286.428 33.0085 286.597 32.9545 286.702 32.8835C286.808 32.8125 286.86 32.7074 286.86 32.5682V32.5426C286.86 32.2727 286.775 32.0639 286.604 31.9162C286.437 31.7685 286.198 31.6946 285.888 31.6946C285.562 31.6946 285.302 31.767 285.109 31.9119C284.915 32.054 284.788 32.233 284.725 32.4489L283.046 32.3125C283.131 31.9148 283.299 31.571 283.549 31.2812C283.799 30.9886 284.121 30.7642 284.516 30.608C284.914 30.4489 285.374 30.3693 285.897 30.3693C286.261 30.3693 286.609 30.4119 286.941 30.4972C287.276 30.5824 287.573 30.7145 287.832 30.8935C288.093 31.0724 288.299 31.3026 288.45 31.5838C288.6 31.8622 288.675 32.196 288.675 32.5852V37H286.954V36.0923H286.903C286.798 36.2969 286.657 36.4773 286.481 36.6335C286.305 36.7869 286.093 36.9077 285.846 36.9957C285.599 37.081 285.313 37.1236 284.989 37.1236ZM285.509 35.8707C285.776 35.8707 286.012 35.8182 286.217 35.7131C286.421 35.6051 286.582 35.4602 286.698 35.2784C286.815 35.0966 286.873 34.8906 286.873 34.6605V33.9659C286.816 34.0028 286.738 34.0369 286.638 34.0682C286.542 34.0966 286.433 34.1236 286.31 34.1491C286.188 34.1719 286.066 34.1932 285.944 34.2131C285.822 34.2301 285.711 34.2457 285.612 34.2599C285.398 34.2912 285.212 34.3409 285.053 34.4091C284.894 34.4773 284.771 34.5696 284.683 34.6861C284.594 34.7997 284.55 34.9418 284.55 35.1122C284.55 35.3594 284.64 35.5483 284.819 35.679C285.001 35.8068 285.231 35.8707 285.509 35.8707ZM296.1 37.1193C295.444 37.1193 294.86 37.0128 294.348 36.7997C293.84 36.5838 293.441 36.2898 293.151 35.9176C292.861 35.5455 292.716 35.1236 292.716 34.652C292.716 34.2884 292.799 33.9545 292.963 33.6506C293.131 33.3438 293.358 33.0895 293.645 32.8878C293.932 32.6832 294.253 32.5526 294.608 32.4957V32.4361C294.142 32.3423 293.765 32.1165 293.475 31.7585C293.185 31.3977 293.04 30.9787 293.04 30.5014C293.04 30.0497 293.172 29.6477 293.436 29.2955C293.701 28.9403 294.063 28.6619 294.523 28.4602C294.986 28.2557 295.512 28.1534 296.1 28.1534C296.688 28.1534 297.212 28.2557 297.672 28.4602C298.135 28.6648 298.499 28.9446 298.763 29.2997C299.027 29.652 299.161 30.0526 299.164 30.5014C299.161 30.9815 299.013 31.4006 298.721 31.7585C298.428 32.1165 298.053 32.3423 297.596 32.4361V32.4957C297.945 32.5526 298.262 32.6832 298.546 32.8878C298.833 33.0895 299.06 33.3438 299.228 33.6506C299.398 33.9545 299.485 34.2884 299.488 34.652C299.485 35.1236 299.338 35.5455 299.049 35.9176C298.759 36.2898 298.358 36.5838 297.847 36.7997C297.338 37.0128 296.756 37.1193 296.1 37.1193ZM296.1 35.7642C296.392 35.7642 296.648 35.7116 296.867 35.6065C297.086 35.4986 297.256 35.3509 297.378 35.1634C297.503 34.973 297.566 34.7543 297.566 34.5071C297.566 34.2543 297.502 34.0312 297.374 33.8381C297.246 33.642 297.073 33.4886 296.854 33.3778C296.635 33.2642 296.384 33.2074 296.1 33.2074C295.819 33.2074 295.567 33.2642 295.346 33.3778C295.124 33.4886 294.949 33.642 294.821 33.8381C294.696 34.0312 294.634 34.2543 294.634 34.5071C294.634 34.7543 294.695 34.973 294.817 35.1634C294.939 35.3509 295.111 35.4986 295.333 35.6065C295.554 35.7116 295.81 35.7642 296.1 35.7642ZM296.1 31.8651C296.344 31.8651 296.561 31.8153 296.752 31.7159C296.942 31.6165 297.091 31.4787 297.199 31.3026C297.307 31.1264 297.361 30.9233 297.361 30.6932C297.361 30.4659 297.307 30.267 297.199 30.0966C297.091 29.9233 296.944 29.7884 296.756 29.6918C296.569 29.5923 296.35 29.5426 296.1 29.5426C295.853 29.5426 295.634 29.5923 295.444 29.6918C295.253 29.7884 295.104 29.9233 294.996 30.0966C294.891 30.267 294.838 30.4659 294.838 30.6932C294.838 30.9233 294.892 31.1264 295 31.3026C295.108 31.4787 295.257 31.6165 295.448 31.7159C295.638 31.8153 295.855 31.8651 296.1 31.8651ZM304.2 37.1918C303.467 37.1889 302.836 37.0085 302.308 36.6506C301.782 36.2926 301.377 35.7741 301.093 35.0952C300.812 34.4162 300.673 33.5994 300.675 32.6449C300.675 31.6932 300.816 30.8821 301.097 30.2116C301.381 29.5412 301.786 29.0312 302.312 28.6818C302.84 28.3295 303.469 28.1534 304.2 28.1534C304.93 28.1534 305.558 28.3295 306.083 28.6818C306.612 29.0341 307.018 29.5455 307.302 30.2159C307.586 30.8835 307.727 31.6932 307.724 32.6449C307.724 33.6023 307.582 34.4205 307.298 35.0994C307.016 35.7784 306.613 36.2969 306.087 36.6548C305.562 37.0128 304.933 37.1918 304.2 37.1918ZM304.2 35.6619C304.7 35.6619 305.099 35.4105 305.397 34.9077C305.695 34.4048 305.843 33.6506 305.84 32.6449C305.84 31.983 305.772 31.4318 305.636 30.9915C305.502 30.5511 305.312 30.2202 305.065 29.9986C304.82 29.777 304.532 29.6662 304.2 29.6662C303.702 29.6662 303.305 29.9148 303.006 30.4119C302.708 30.9091 302.558 31.6534 302.555 32.6449C302.555 33.3153 302.621 33.875 302.755 34.3239C302.891 34.7699 303.083 35.1051 303.33 35.3295C303.577 35.5511 303.867 35.6619 304.2 35.6619ZM312.295 37.1193C311.639 37.1193 311.055 37.0128 310.544 36.7997C310.035 36.5838 309.636 36.2898 309.346 35.9176C309.056 35.5455 308.912 35.1236 308.912 34.652C308.912 34.2884 308.994 33.9545 309.159 33.6506C309.326 33.3438 309.554 33.0895 309.841 32.8878C310.127 32.6832 310.449 32.5526 310.804 32.4957V32.4361C310.338 32.3423 309.96 32.1165 309.67 31.7585C309.38 31.3977 309.235 30.9787 309.235 30.5014C309.235 30.0497 309.368 29.6477 309.632 29.2955C309.896 28.9403 310.258 28.6619 310.718 28.4602C311.181 28.2557 311.707 28.1534 312.295 28.1534C312.883 28.1534 313.407 28.2557 313.868 28.4602C314.331 28.6648 314.694 28.9446 314.958 29.2997C315.223 29.652 315.356 30.0526 315.359 30.5014C315.356 30.9815 315.208 31.4006 314.916 31.7585C314.623 32.1165 314.248 32.3423 313.791 32.4361V32.4957C314.14 32.5526 314.457 32.6832 314.741 32.8878C315.028 33.0895 315.255 33.3438 315.423 33.6506C315.593 33.9545 315.68 34.2884 315.683 34.652C315.68 35.1236 315.534 35.5455 315.244 35.9176C314.954 36.2898 314.554 36.5838 314.042 36.7997C313.534 37.0128 312.951 37.1193 312.295 37.1193ZM312.295 35.7642C312.588 35.7642 312.843 35.7116 313.062 35.6065C313.281 35.4986 313.451 35.3509 313.574 35.1634C313.699 34.973 313.761 34.7543 313.761 34.5071C313.761 34.2543 313.697 34.0312 313.569 33.8381C313.441 33.642 313.268 33.4886 313.049 33.3778C312.831 33.2642 312.579 33.2074 312.295 33.2074C312.014 33.2074 311.762 33.2642 311.541 33.3778C311.319 33.4886 311.145 33.642 311.017 33.8381C310.892 34.0312 310.829 34.2543 310.829 34.5071C310.829 34.7543 310.89 34.973 311.012 35.1634C311.135 35.3509 311.306 35.4986 311.528 35.6065C311.75 35.7116 312.005 35.7642 312.295 35.7642ZM312.295 31.8651C312.539 31.8651 312.757 31.8153 312.947 31.7159C313.137 31.6165 313.287 31.4787 313.395 31.3026C313.502 31.1264 313.556 30.9233 313.556 30.6932C313.556 30.4659 313.502 30.267 313.395 30.0966C313.287 29.9233 313.139 29.7884 312.951 29.6918C312.764 29.5923 312.545 29.5426 312.295 29.5426C312.048 29.5426 311.829 29.5923 311.639 29.6918C311.449 29.7884 311.299 29.9233 311.191 30.0966C311.086 30.267 311.034 30.4659 311.034 30.6932C311.034 30.9233 311.088 31.1264 311.196 31.3026C311.304 31.4787 311.453 31.6165 311.643 31.7159C311.833 31.8153 312.051 31.8651 312.295 31.8651ZM320.395 37.1918C319.662 37.1889 319.031 37.0085 318.503 36.6506C317.977 36.2926 317.572 35.7741 317.288 35.0952C317.007 34.4162 316.868 33.5994 316.871 32.6449C316.871 31.6932 317.011 30.8821 317.293 30.2116C317.577 29.5412 317.982 29.0312 318.507 28.6818C319.036 28.3295 319.665 28.1534 320.395 28.1534C321.125 28.1534 321.753 28.3295 322.278 28.6818C322.807 29.0341 323.213 29.5455 323.497 30.2159C323.781 30.8835 323.922 31.6932 323.919 32.6449C323.919 33.6023 323.777 34.4205 323.493 35.0994C323.212 35.7784 322.808 36.2969 322.283 36.6548C321.757 37.0128 321.128 37.1918 320.395 37.1918ZM320.395 35.6619C320.895 35.6619 321.294 35.4105 321.592 34.9077C321.891 34.4048 322.038 33.6506 322.036 32.6449C322.036 31.983 321.967 31.4318 321.831 30.9915C321.697 30.5511 321.507 30.2202 321.26 29.9986C321.016 29.777 320.727 29.6662 320.395 29.6662C319.898 29.6662 319.5 29.9148 319.202 30.4119C318.903 30.9091 318.753 31.6534 318.75 32.6449C318.75 33.3153 318.817 33.875 318.95 34.3239C319.087 34.7699 319.278 35.1051 319.526 35.3295C319.773 35.5511 320.062 35.6619 320.395 35.6619Z" fill="black"/>
<rect x="129.584" y="18.5" width="100.736" height="50.5747" fill="#D60000" stroke="black"/>
<path d="M157.856 40.8948C157.811 40.4364 157.616 40.0804 157.271 39.8266C156.926 39.5728 156.458 39.4459 155.868 39.4459C155.466 39.4459 155.127 39.5027 154.851 39.6164C154.574 39.7262 154.362 39.8796 154.214 40.0766C154.07 40.2736 153.998 40.497 153.998 40.747C153.991 40.9554 154.034 41.1372 154.129 41.2925C154.227 41.4478 154.362 41.5823 154.532 41.6959C154.703 41.8058 154.9 41.9023 155.123 41.9857C155.347 42.0652 155.585 42.1334 155.839 42.1902L156.885 42.4402C157.392 42.5539 157.858 42.7054 158.282 42.8948C158.707 43.0842 159.074 43.3171 159.385 43.5936C159.695 43.8701 159.936 44.1959 160.106 44.5709C160.28 44.9459 160.369 45.3758 160.373 45.8607C160.369 46.5728 160.188 47.1902 159.828 47.7129C159.472 48.2319 158.957 48.6353 158.282 48.9232C157.612 49.2073 156.803 49.3493 155.856 49.3493C154.917 49.3493 154.099 49.2054 153.402 48.9175C152.708 48.6296 152.167 48.2035 151.777 47.6391C151.39 47.0709 151.188 46.3683 151.169 45.5311H153.549C153.576 45.9213 153.688 46.247 153.885 46.5084C154.085 46.766 154.352 46.9611 154.686 47.0936C155.023 47.2224 155.404 47.2868 155.828 47.2868C156.244 47.2868 156.606 47.2262 156.913 47.105C157.224 46.9838 157.464 46.8152 157.635 46.5993C157.805 46.3834 157.89 46.1353 157.89 45.855C157.89 45.5936 157.813 45.3739 157.657 45.1959C157.506 45.0179 157.282 44.8664 156.987 44.7414C156.695 44.6164 156.337 44.5027 155.913 44.4004L154.646 44.0823C153.665 43.8436 152.89 43.4705 152.322 42.9629C151.754 42.4554 151.472 41.7717 151.476 40.9118C151.472 40.2073 151.659 39.5917 152.038 39.0652C152.421 38.5387 152.945 38.1277 153.612 37.8323C154.279 37.5368 155.036 37.3891 155.885 37.3891C156.748 37.3891 157.502 37.5368 158.146 37.8323C158.794 38.1277 159.298 38.5387 159.657 39.0652C160.017 39.5917 160.203 40.2016 160.214 40.8948H157.856ZM165.96 49.355C165.062 49.355 164.289 49.1732 163.642 48.8095C162.998 48.4421 162.502 47.9232 162.153 47.2527C161.805 46.5785 161.63 45.7811 161.63 44.8607C161.63 43.9629 161.805 43.1751 162.153 42.497C162.502 41.819 162.992 41.2906 163.625 40.9118C164.261 40.533 165.007 40.3436 165.863 40.3436C166.439 40.3436 166.975 40.4364 167.471 40.622C167.971 40.8039 168.407 41.0785 168.778 41.4459C169.153 41.8133 169.445 42.2754 169.653 42.8323C169.861 43.3853 169.966 44.033 169.966 44.7754V45.4402H162.596V43.9402H167.687C167.687 43.5917 167.611 43.283 167.46 43.0141C167.308 42.7451 167.098 42.5349 166.829 42.3834C166.564 42.2281 166.255 42.1504 165.903 42.1504C165.536 42.1504 165.21 42.2357 164.926 42.4061C164.646 42.5728 164.426 42.7982 164.267 43.0823C164.108 43.3626 164.026 43.6751 164.022 44.0198V45.4459C164.022 45.8777 164.102 46.2508 164.261 46.5652C164.424 46.8796 164.653 47.122 164.949 47.2925C165.244 47.4629 165.594 47.5482 166 47.5482C166.269 47.5482 166.515 47.5103 166.738 47.4345C166.962 47.3588 167.153 47.2451 167.312 47.0936C167.471 46.9421 167.592 46.7565 167.676 46.5368L169.914 46.6845C169.801 47.2224 169.568 47.6921 169.216 48.0936C168.867 48.4914 168.416 48.802 167.863 49.0254C167.314 49.2451 166.68 49.355 165.96 49.355ZM171.545 49.1845V40.4573H173.892V41.98H173.983C174.142 41.4383 174.409 41.0292 174.784 40.7527C175.159 40.4724 175.591 40.3323 176.079 40.3323C176.2 40.3323 176.331 40.3398 176.471 40.355C176.611 40.3701 176.735 40.391 176.841 40.4175V42.5652C176.727 42.5311 176.57 42.5008 176.369 42.4743C176.168 42.4478 175.985 42.4345 175.818 42.4345C175.462 42.4345 175.144 42.5122 174.863 42.6675C174.587 42.819 174.367 43.0311 174.204 43.3039C174.045 43.5766 173.966 43.891 173.966 44.247V49.1845H171.545ZM186.494 40.4573L183.443 49.1845H180.716L177.664 40.4573H180.221L182.034 46.7016H182.125L183.931 40.4573H186.494ZM187.733 49.1845V40.4573H190.153V49.1845H187.733ZM188.949 39.3323C188.589 39.3323 188.28 39.2129 188.022 38.9743C187.769 38.7319 187.642 38.4421 187.642 38.105C187.642 37.7717 187.769 37.4857 188.022 37.247C188.28 37.0046 188.589 36.8834 188.949 36.8834C189.308 36.8834 189.615 37.0046 189.869 37.247C190.127 37.4857 190.255 37.7717 190.255 38.105C190.255 38.4421 190.127 38.7319 189.869 38.9743C189.615 39.2129 189.308 39.3323 188.949 39.3323ZM196.035 49.355C195.141 49.355 194.372 49.1656 193.728 48.7868C193.088 48.4042 192.596 47.8739 192.251 47.1959C191.91 46.5179 191.74 45.7376 191.74 44.855C191.74 43.9611 191.912 43.177 192.257 42.5027C192.605 41.8247 193.1 41.2963 193.74 40.9175C194.38 40.5349 195.141 40.3436 196.024 40.3436C196.785 40.3436 197.452 40.4819 198.024 40.7584C198.596 41.0349 199.048 41.4232 199.382 41.9232C199.715 42.4232 199.899 43.0103 199.933 43.6845H197.649C197.584 43.2489 197.414 42.8986 197.137 42.6334C196.865 42.3645 196.507 42.23 196.064 42.23C195.689 42.23 195.361 42.3323 195.081 42.5368C194.804 42.7376 194.588 43.0311 194.433 43.4175C194.278 43.8039 194.2 44.2717 194.2 44.8209C194.2 45.3777 194.276 45.8512 194.427 46.2414C194.583 46.6315 194.8 46.9289 195.081 47.1334C195.361 47.3379 195.689 47.4402 196.064 47.4402C196.34 47.4402 196.588 47.3834 196.808 47.2698C197.031 47.1561 197.215 46.9914 197.359 46.7754C197.507 46.5558 197.603 46.2925 197.649 45.9857H199.933C199.895 46.6523 199.713 47.2395 199.387 47.747C199.065 48.2508 198.62 48.6448 198.052 48.9289C197.484 49.2129 196.812 49.355 196.035 49.355ZM205.46 49.355C204.562 49.355 203.789 49.1732 203.142 48.8095C202.498 48.4421 202.002 47.9232 201.653 47.2527C201.305 46.5785 201.13 45.7811 201.13 44.8607C201.13 43.9629 201.305 43.1751 201.653 42.497C202.002 41.819 202.492 41.2906 203.125 40.9118C203.761 40.533 204.507 40.3436 205.363 40.3436C205.939 40.3436 206.475 40.4364 206.971 40.622C207.471 40.8039 207.907 41.0785 208.278 41.4459C208.653 41.8133 208.945 42.2754 209.153 42.8323C209.361 43.3853 209.466 44.033 209.466 44.7754V45.4402H202.096V43.9402H207.187C207.187 43.5917 207.111 43.283 206.96 43.0141C206.808 42.7451 206.598 42.5349 206.329 42.3834C206.064 42.2281 205.755 42.1504 205.403 42.1504C205.036 42.1504 204.71 42.2357 204.426 42.4061C204.146 42.5728 203.926 42.7982 203.767 43.0823C203.608 43.3626 203.526 43.6751 203.522 44.0198V45.4459C203.522 45.8777 203.602 46.2508 203.761 46.5652C203.924 46.8796 204.153 47.122 204.449 47.2925C204.744 47.4629 205.094 47.5482 205.5 47.5482C205.769 47.5482 206.015 47.5103 206.238 47.4345C206.462 47.3588 206.653 47.2451 206.812 47.0936C206.971 46.9421 207.092 46.7565 207.176 46.5368L209.414 46.6845C209.301 47.2224 209.068 47.6921 208.716 48.0936C208.367 48.4914 207.916 48.802 207.363 49.0254C206.814 49.2451 206.18 49.355 205.46 49.355Z" fill="#FFFAFA"/>
<rect x="360.5" y="18.5" width="100.736" height="50.5747" fill="#0773C1" stroke="black" stroke-linejoin="round"/>
<path d="M376.657 49H374.02L378.037 37.3636H381.208L385.219 49H382.583L379.668 40.0227H379.577L376.657 49ZM376.492 44.4261H382.719V46.3466H376.492V44.4261ZM386.574 52.2727V40.2727H388.961V41.7386H389.069C389.175 41.5038 389.328 41.2652 389.529 41.0227C389.733 40.7765 389.998 40.572 390.324 40.4091C390.654 40.2424 391.063 40.1591 391.551 40.1591C392.188 40.1591 392.775 40.3258 393.313 40.6591C393.851 40.9886 394.281 41.4867 394.603 42.1534C394.925 42.8163 395.086 43.6477 395.086 44.6477C395.086 45.6212 394.928 46.4432 394.614 47.1136C394.303 47.7803 393.879 48.286 393.341 48.6307C392.807 48.9716 392.209 49.142 391.546 49.142C391.076 49.142 390.676 49.0644 390.347 48.9091C390.021 48.7538 389.754 48.5587 389.546 48.3239C389.337 48.0852 389.178 47.8447 389.069 47.6023H388.995V52.2727H386.574ZM388.944 44.6364C388.944 45.1553 389.015 45.608 389.159 45.9943C389.303 46.3807 389.512 46.6818 389.784 46.8977C390.057 47.1098 390.389 47.2159 390.779 47.2159C391.173 47.2159 391.506 47.108 391.779 46.892C392.051 46.6723 392.258 46.3693 392.398 45.983C392.542 45.5928 392.614 45.1439 392.614 44.6364C392.614 44.1326 392.544 43.6894 392.404 43.3068C392.264 42.9242 392.057 42.625 391.784 42.4091C391.512 42.1932 391.176 42.0852 390.779 42.0852C390.385 42.0852 390.051 42.1894 389.779 42.3977C389.51 42.6061 389.303 42.9015 389.159 43.2841C389.015 43.6667 388.944 44.1174 388.944 44.6364ZM399.12 37.3636V49H396.699V37.3636H399.12ZM401.059 49V40.2727H403.479V49H401.059ZM402.274 39.1477C401.915 39.1477 401.606 39.0284 401.348 38.7898C401.095 38.5473 400.968 38.2576 400.968 37.9205C400.968 37.5871 401.095 37.3011 401.348 37.0625C401.606 36.8201 401.915 36.6989 402.274 36.6989C402.634 36.6989 402.941 36.8201 403.195 37.0625C403.452 37.3011 403.581 37.5871 403.581 37.9205C403.581 38.2576 403.452 38.5473 403.195 38.7898C402.941 39.0284 402.634 39.1477 402.274 39.1477ZM409.361 49.1705C408.467 49.1705 407.698 48.9811 407.054 48.6023C406.414 48.2197 405.922 47.6894 405.577 47.0114C405.236 46.3333 405.066 45.553 405.066 44.6705C405.066 43.7765 405.238 42.9924 405.583 42.3182C405.931 41.6402 406.426 41.1117 407.066 40.733C407.706 40.3504 408.467 40.1591 409.35 40.1591C410.111 40.1591 410.778 40.2973 411.35 40.5739C411.922 40.8504 412.374 41.2386 412.708 41.7386C413.041 42.2386 413.225 42.8258 413.259 43.5H410.975C410.91 43.0644 410.74 42.714 410.463 42.4489C410.191 42.1799 409.833 42.0455 409.39 42.0455C409.015 42.0455 408.687 42.1477 408.407 42.3523C408.13 42.553 407.914 42.8466 407.759 43.233C407.604 43.6193 407.526 44.0871 407.526 44.6364C407.526 45.1932 407.602 45.6667 407.753 46.0568C407.908 46.447 408.126 46.7443 408.407 46.9489C408.687 47.1534 409.015 47.2557 409.39 47.2557C409.666 47.2557 409.914 47.1989 410.134 47.0852C410.357 46.9716 410.541 46.8068 410.685 46.5909C410.833 46.3712 410.929 46.108 410.975 45.8011H413.259C413.221 46.4678 413.039 47.0549 412.713 47.5625C412.391 48.0663 411.946 48.4602 411.378 48.7443C410.81 49.0284 410.138 49.1705 409.361 49.1705ZM417.297 49.1648C416.74 49.1648 416.244 49.0682 415.809 48.875C415.373 48.678 415.028 48.3883 414.774 48.0057C414.524 47.6193 414.399 47.1383 414.399 46.5625C414.399 46.0777 414.488 45.6705 414.667 45.3409C414.845 45.0114 415.087 44.7462 415.394 44.5455C415.701 44.3447 416.049 44.1932 416.439 44.0909C416.833 43.9886 417.246 43.9167 417.678 43.875C418.185 43.822 418.595 43.7727 418.905 43.7273C419.216 43.678 419.441 43.6061 419.581 43.5114C419.721 43.4167 419.792 43.2765 419.792 43.0909V43.0568C419.792 42.697 419.678 42.4186 419.451 42.2216C419.227 42.0246 418.909 41.9261 418.496 41.9261C418.06 41.9261 417.714 42.0227 417.456 42.2159C417.199 42.4053 417.028 42.6439 416.945 42.9318L414.706 42.75C414.82 42.2197 415.043 41.7614 415.377 41.375C415.71 40.9848 416.14 40.6856 416.667 40.4773C417.197 40.2652 417.81 40.1591 418.507 40.1591C418.992 40.1591 419.456 40.2159 419.899 40.3295C420.346 40.4432 420.742 40.6193 421.087 40.858C421.435 41.0966 421.71 41.4034 421.911 41.7784C422.112 42.1496 422.212 42.5947 422.212 43.1136V49H419.917V47.7898H419.848C419.708 48.0625 419.521 48.303 419.286 48.5114C419.051 48.7159 418.769 48.8769 418.439 48.9943C418.11 49.108 417.729 49.1648 417.297 49.1648ZM417.99 47.4943C418.346 47.4943 418.661 47.4242 418.934 47.2841C419.206 47.1402 419.42 46.947 419.576 46.7045C419.731 46.4621 419.809 46.1875 419.809 45.8807V44.9545C419.733 45.0038 419.629 45.0492 419.496 45.0909C419.367 45.1288 419.221 45.1648 419.059 45.1989C418.896 45.2292 418.733 45.2576 418.57 45.2841C418.407 45.3068 418.259 45.3277 418.127 45.3466C417.843 45.3883 417.595 45.4545 417.382 45.5455C417.17 45.6364 417.006 45.7595 416.888 45.9148C416.771 46.0663 416.712 46.2557 416.712 46.483C416.712 46.8125 416.831 47.0644 417.07 47.2386C417.312 47.4091 417.619 47.4943 417.99 47.4943ZM428.033 49.1705C427.139 49.1705 426.37 48.9811 425.726 48.6023C425.086 48.2197 424.594 47.6894 424.249 47.0114C423.908 46.3333 423.738 45.553 423.738 44.6705C423.738 43.7765 423.91 42.9924 424.255 42.3182C424.603 41.6402 425.097 41.1117 425.738 40.733C426.378 40.3504 427.139 40.1591 428.022 40.1591C428.783 40.1591 429.45 40.2973 430.022 40.5739C430.594 40.8504 431.046 41.2386 431.38 41.7386C431.713 42.2386 431.897 42.8258 431.931 43.5H429.647C429.582 43.0644 429.412 42.714 429.135 42.4489C428.863 42.1799 428.505 42.0455 428.061 42.0455C427.686 42.0455 427.359 42.1477 427.078 42.3523C426.802 42.553 426.586 42.8466 426.431 43.233C426.275 43.6193 426.198 44.0871 426.198 44.6364C426.198 45.1932 426.274 45.6667 426.425 46.0568C426.58 46.447 426.798 46.7443 427.078 46.9489C427.359 47.1534 427.686 47.2557 428.061 47.2557C428.338 47.2557 428.586 47.1989 428.806 47.0852C429.029 46.9716 429.213 46.8068 429.357 46.5909C429.505 46.3712 429.601 46.108 429.647 45.8011H431.931C431.893 46.4678 431.711 47.0549 431.385 47.5625C431.063 48.0663 430.618 48.4602 430.05 48.7443C429.482 49.0284 428.81 49.1705 428.033 49.1705ZM427.465 48.9545H428.578L428.488 49.4489C428.878 49.5095 429.196 49.6553 429.442 49.8864C429.692 50.1174 429.819 50.4318 429.823 50.8295C429.827 51.3939 429.565 51.8428 429.039 52.1761C428.512 52.5133 427.774 52.6818 426.823 52.6818L426.8 51.6023C427.277 51.6023 427.65 51.5436 427.919 51.4261C428.192 51.3125 428.334 51.1345 428.345 50.892C428.353 50.661 428.264 50.4848 428.078 50.3636C427.893 50.2424 427.603 50.1572 427.209 50.108L427.465 48.9545ZM435.969 49.1648C435.412 49.1648 434.916 49.0682 434.48 48.875C434.045 48.678 433.7 48.3883 433.446 48.0057C433.196 47.6193 433.071 47.1383 433.071 46.5625C433.071 46.0777 433.16 45.6705 433.338 45.3409C433.516 45.0114 433.759 44.7462 434.066 44.5455C434.372 44.3447 434.721 44.1932 435.111 44.0909C435.505 43.9886 435.918 43.9167 436.35 43.875C436.857 43.822 437.266 43.7727 437.577 43.7273C437.888 43.678 438.113 43.6061 438.253 43.5114C438.393 43.4167 438.463 43.2765 438.463 43.0909V43.0568C438.463 42.697 438.35 42.4186 438.122 42.2216C437.899 42.0246 437.581 41.9261 437.168 41.9261C436.732 41.9261 436.386 42.0227 436.128 42.2159C435.871 42.4053 435.7 42.6439 435.617 42.9318L433.378 42.75C433.492 42.2197 433.715 41.7614 434.049 41.375C434.382 40.9848 434.812 40.6856 435.338 40.4773C435.869 40.2652 436.482 40.1591 437.179 40.1591C437.664 40.1591 438.128 40.2159 438.571 40.3295C439.018 40.4432 439.414 40.6193 439.759 40.858C440.107 41.0966 440.382 41.4034 440.583 41.7784C440.783 42.1496 440.884 42.5947 440.884 43.1136V49H438.588V47.7898H438.52C438.38 48.0625 438.193 48.303 437.958 48.5114C437.723 48.7159 437.441 48.8769 437.111 48.9943C436.782 49.108 436.401 49.1648 435.969 49.1648ZM436.662 47.4943C437.018 47.4943 437.333 47.4242 437.605 47.2841C437.878 47.1402 438.092 46.947 438.247 46.7045C438.403 46.4621 438.48 46.1875 438.48 45.8807V44.9545C438.405 45.0038 438.301 45.0492 438.168 45.0909C438.039 45.1288 437.893 45.1648 437.73 45.1989C437.568 45.2292 437.405 45.2576 437.242 45.2841C437.079 45.3068 436.931 45.3277 436.799 45.3466C436.515 45.3883 436.266 45.4545 436.054 45.5455C435.842 45.6364 435.677 45.7595 435.56 45.9148C435.443 46.0663 435.384 46.2557 435.384 46.483C435.384 46.8125 435.503 47.0644 435.742 47.2386C435.984 47.4091 436.291 47.4943 436.662 47.4943ZM435.645 39.1989L434.299 39.1818C434.299 38.4583 434.477 37.9034 434.833 37.517C435.193 37.1307 435.63 36.9356 436.145 36.9318C436.41 36.9318 436.638 36.9754 436.827 37.0625C437.02 37.1458 437.193 37.2443 437.344 37.358C437.499 37.4716 437.647 37.572 437.787 37.6591C437.927 37.7424 438.079 37.7841 438.242 37.7841C438.461 37.7803 438.628 37.6989 438.742 37.5398C438.859 37.3769 438.918 37.1648 438.918 36.9034L440.242 36.9432C440.234 37.6591 440.052 38.2121 439.696 38.6023C439.34 38.9886 438.907 39.1837 438.395 39.1875C438.111 39.1875 437.872 39.1458 437.679 39.0625C437.49 38.9754 437.323 38.8769 437.179 38.767C437.035 38.6534 436.895 38.553 436.759 38.4659C436.622 38.3788 436.469 38.3352 436.299 38.3352C436.102 38.3352 435.943 38.4129 435.821 38.5682C435.704 38.7235 435.645 38.9337 435.645 39.1989ZM446.705 49.1705C445.822 49.1705 445.059 48.983 444.415 48.608C443.775 48.2292 443.281 47.7027 442.932 47.0284C442.584 46.3504 442.409 45.5644 442.409 44.6705C442.409 43.7689 442.584 42.9811 442.932 42.3068C443.281 41.6288 443.775 41.1023 444.415 40.7273C445.059 40.3485 445.822 40.1591 446.705 40.1591C447.587 40.1591 448.349 40.3485 448.989 40.7273C449.633 41.1023 450.129 41.6288 450.478 42.3068C450.826 42.9811 451 43.7689 451 44.6705C451 45.5644 450.826 46.3504 450.478 47.0284C450.129 47.7027 449.633 48.2292 448.989 48.608C448.349 48.983 447.587 49.1705 446.705 49.1705ZM446.716 47.2955C447.118 47.2955 447.453 47.1818 447.722 46.9545C447.991 46.7235 448.194 46.4091 448.33 46.0114C448.47 45.6136 448.54 45.161 448.54 44.6534C448.54 44.1458 448.47 43.6932 448.33 43.2955C448.194 42.8977 447.991 42.5833 447.722 42.3523C447.453 42.1212 447.118 42.0057 446.716 42.0057C446.311 42.0057 445.97 42.1212 445.694 42.3523C445.421 42.5833 445.214 42.8977 445.074 43.2955C444.938 43.6932 444.87 44.1458 444.87 44.6534C444.87 45.161 444.938 45.6136 445.074 46.0114C445.214 46.4091 445.421 46.7235 445.694 46.9545C445.97 47.1818 446.311 47.2955 446.716 47.2955Z" fill="#FFFAFA"/>
<path d="M350.061 45.0607C350.646 44.4749 350.646 43.5251 350.061 42.9393L340.515 33.3934C339.929 32.8076 338.979 32.8076 338.393 33.3934C337.808 33.9792 337.808 34.9289 338.393 35.5147L346.879 44L338.393 52.4853C337.808 53.0711 337.808 54.0208 338.393 54.6066C338.979 55.1924 339.929 55.1924 340.515 54.6066L350.061 45.0607ZM246 45.5L349 45.5V42.5L246 42.5V45.5Z" fill="black"/>
<path d="M11 44.1758C11 48.594 14.5817 52.1758 19 52.1758C23.4183 52.1758 27 48.594 27 44.1758C27 39.7575 23.4183 36.1758 19 36.1758C14.5817 36.1758 11 39.7575 11 44.1758ZM119.061 45.2364C119.646 44.6506 119.646 43.7009 119.061 43.1151L109.515 33.5692C108.929 32.9834 107.979 32.9834 107.393 33.5692C106.808 34.1549 106.808 35.1047 107.393 35.6905L115.879 44.1758L107.393 52.661C106.808 53.2468 106.808 54.1966 107.393 54.7824C107.979 55.3681 108.929 55.3681 109.515 54.7824L119.061 45.2364ZM19 45.6758L118 45.6758L118 42.6758L19 42.6758L19 45.6758Z" fill="black"/>
</svg>
